<svg id="Layer_1" data-name="Layer 1" xmlns="http://www.w3.org/2000/svg" width="100" height="100" viewBox="0 0 100 100"><title>Artboard 1</title><circle cx="50" cy="50" r="50" fill="#f2f2f2"/><path d="M77.6,34.4h0l-.5-6.1a4.3,4.3,0,0,0-4.7-3.9l-3.3.3-.2-2.4a1.6,1.6,0,0,0-3.2.3l.2,2.4-5.9.5-.2-2.4a1.6,1.6,0,0,0-3.2.3l.2,2.4-5.9.5-.2-2.4a1.6,1.6,0,0,0-3.2.3l.2,2.4-5.9.5-.2-2.4a1.6,1.6,0,0,0-3.2.3l.2,2.4-5.9.5-.2-2.4a1.6,1.6,0,1,0-3.2.3l.2,2.4-3.3.3A4.3,4.3,0,0,0,22,33.2l.8,9.4h0l3.2,37a4.3,4.3,0,0,0,4.7,3.9l46.4-4.1a4.3,4.3,0,0,0,3.9-4.7Z" fill="#c7c8ca"/><rect x="22.4" y="24.8" width="55.2" height="55.24" rx="4.3" ry="4.3" transform="translate(-4.4 4.6) rotate(-5)" fill="#b2b3b2"/><path d="M76.3,36.2l-.8-9.4a4.3,4.3,0,0,0-4.7-3.9L24.4,26.9a4.3,4.3,0,0,0-3.9,4.7l.8,9.4Z" fill="#038ab1"/><path d="M76,32.8l-.5-6.1a4.3,4.3,0,0,0-4.7-3.9L24.4,26.9a4.3,4.3,0,0,0-3.9,4.7l.5,6.1Z" fill="#007298"/><circle cx="29.6" cy="30" r="2.2" transform="translate(-2.5 2.7) rotate(-5)" fill="#005e85"/><circle cx="38.7" cy="29.2" r="2.2" transform="translate(-2.4 3.5) rotate(-5)" fill="#005e85"/><circle cx="47.9" cy="28.4" r="2.2" transform="translate(-2.3 4.3) rotate(-5)" fill="#005e85"/><circle cx="57.1" cy="27.6" r="2.2" transform="translate(-2.2 5.1) rotate(-5)" fill="#005e85"/><circle cx="66.2" cy="26.8" r="2.2" transform="translate(-2.1 5.9) rotate(-5)" fill="#005e85"/><rect x="27.7" y="22.4" width="3.2" height="9.26" rx="1.6" ry="1.6" transform="translate(-2.2 2.7) rotate(-5)" fill="#333e48"/><rect x="36.9" y="21.6" width="3.2" height="9.26" rx="1.6" ry="1.6" transform="translate(-2.1 3.5) rotate(-5)" fill="#333e48"/><rect x="46" y="20.8" width="3.2" height="9.26" rx="1.6" ry="1.6" transform="matrix(1, -0.09, 0.09, 1, -2.04, 4.25)" fill="#333e48"/><rect x="55.2" y="20" width="3.2" height="9.26" rx="1.6" ry="1.6" transform="translate(-1.9 5) rotate(-5)" fill="#333e48"/><rect x="64.3" y="19.2" width="3.2" height="9.26" rx="1.6" ry="1.6" transform="translate(-1.8 5.8) rotate(-5)" fill="#333e48"/><circle cx="42.4" cy="45.6" r="2.3" transform="translate(-3.8 3.9) rotate(-5)" fill="#fff"/><circle cx="49.4" cy="45" r="2.3" transform="translate(-3.7 4.5) rotate(-5)" fill="#fff"/><circle cx="56.3" cy="44.4" r="2.3" transform="translate(-3.7 5.1) rotate(-5)" fill="#fff"/><circle cx="63.3" cy="43.8" r="2.3" transform="translate(-3.6 5.7) rotate(-5)" fill="#fff"/><circle cx="70.3" cy="43.2" r="2.3" transform="translate(-3.5 6.3) rotate(-5)" fill="#fff"/><circle cx="29" cy="53.5" r="2.3" transform="translate(-4.5 2.7) rotate(-5)" fill="#fff"/><circle cx="36" cy="52.9" r="2.3" transform="translate(-4.5 3.3) rotate(-5)" fill="#fff"/><circle cx="43" cy="52.2" r="2.3" transform="translate(-4.4 3.9) rotate(-5)" fill="#fff"/><circle cx="49.9" cy="51.6" r="2.3" transform="matrix(1, -0.09, 0.09, 1, -4.31, 4.55)" fill="#fff"/><circle cx="56.9" cy="51" r="2.3" transform="matrix(1, -0.09, 0.09, 1, -4.23, 5.15)" fill="#fff"/><circle cx="63.9" cy="50.4" r="2.3" transform="translate(-4.2 5.8) rotate(-5)" fill="#fff"/><circle cx="70.8" cy="49.8" r="2.3" transform="translate(-4.1 6.4) rotate(-5)" fill="#fff"/><circle cx="29.6" cy="60.1" r="2.3" transform="translate(-5.1 2.8) rotate(-5)" fill="#fff"/><circle cx="36.6" cy="59.5" r="2.3" transform="translate(-5 3.4) rotate(-5)" fill="#fff"/><circle cx="43.5" cy="58.9" r="2.3" transform="translate(-5 4) rotate(-5)" fill="#fff"/><circle cx="50.5" cy="58.3" r="2.3" transform="translate(-4.9 4.6) rotate(-5)" fill="#fff"/><circle cx="57.5" cy="57.6" r="2.3" transform="translate(-4.8 5.2) rotate(-5)" fill="#fff"/><circle cx="64.4" cy="57" r="2.3" transform="translate(-4.7 5.8) rotate(-5)" fill="#fff"/><circle cx="71.4" cy="56.4" r="2.3" transform="translate(-4.6 6.4) rotate(-5)" fill="#fff"/><circle cx="30.2" cy="66.7" r="2.3" transform="translate(-5.7 2.9) rotate(-5)" fill="#fff"/><circle cx="37.2" cy="66.1" r="2.3" transform="translate(-5.6 3.5) rotate(-5)" fill="#fff"/><circle cx="44.1" cy="65.5" r="2.3" transform="translate(-5.5 4.1) rotate(-5)" fill="#fff"/><circle cx="51.1" cy="64.9" r="2.3" transform="translate(-5.5 4.7) rotate(-5)" fill="#fff"/><circle cx="58.1" cy="64.3" r="2.3" transform="translate(-5.4 5.3) rotate(-5)" fill="#fff"/><circle cx="65" cy="63.7" r="2.3" transform="translate(-5.3 5.9) rotate(-5)" fill="#fff"/><circle cx="72" cy="63.1" r="2.3" transform="translate(-5.2 6.5) rotate(-5)" fill="#fff"/><circle cx="30.8" cy="73.3" r="2.3" transform="translate(-6.3 3) rotate(-5)" fill="#fff"/><circle cx="37.7" cy="72.7" r="2.3" transform="translate(-6.2 3.6) rotate(-5)" fill="#fff"/><circle cx="44.7" cy="72.1" r="2.3" transform="translate(-6.1 4.2) rotate(-5)" fill="#fff"/><circle cx="51.7" cy="71.5" r="2.3" transform="translate(-6 4.8) rotate(-5)" fill="#fff"/><circle cx="58.6" cy="70.9" r="2.3" transform="translate(-6 5.4) rotate(-5)" fill="#fff"/><rect x="40.1" y="43.3" width="4.7" height="4.66" transform="translate(-3.8 3.9) rotate(-5)" fill="#fff"/><rect x="47" y="42.7" width="4.7" height="4.66" transform="translate(-3.7 4.5) rotate(-5)" fill="#fff"/><rect x="54" y="42.1" width="4.7" height="4.66" transform="translate(-3.7 5.1) rotate(-5)" fill="#fff"/><rect x="61" y="41.5" width="4.7" height="4.66" transform="translate(-3.6 5.7) rotate(-5)" fill="#fff"/><rect x="67.9" y="40.9" width="4.7" height="4.66" transform="translate(-3.5 6.3) rotate(-5)" fill="#fff"/><rect x="40.6" y="49.9" width="4.7" height="4.66" transform="translate(-4.4 3.9) rotate(-5)" fill="#fff"/><rect x="33.7" y="50.5" width="4.7" height="4.66" transform="translate(-4.5 3.3) rotate(-5)" fill="#fff"/><rect x="47.6" y="49.3" width="4.7" height="4.66" transform="translate(-4.3 4.5) rotate(-5)" fill="#fff"/><rect x="54.6" y="48.7" width="4.7" height="4.66" transform="translate(-4.2 5.2) rotate(-5)" fill="#fff"/><rect x="61.5" y="48.1" width="4.7" height="4.66" transform="translate(-4.2 5.8) rotate(-5)" fill="#fff"/><rect x="68.5" y="47.5" width="4.7" height="4.66" transform="translate(-4.1 6.4) rotate(-5)" fill="#fff"/><rect x="26.7" y="51.1" width="4.7" height="4.66" transform="translate(-4.5 2.7) rotate(-5)" fill="#fff"/><rect x="41.2" y="56.5" width="4.7" height="4.66" transform="translate(-5 4) rotate(-5)" fill="#fff"/><rect x="34.3" y="57.1" width="4.7" height="4.66" transform="translate(-5 3.4) rotate(-5)" fill="#fff"/><rect x="48.2" y="55.9" width="4.7" height="4.66" transform="translate(-4.9 4.6) rotate(-5)" fill="#fff"/><rect x="55.1" y="55.3" width="4.7" height="4.66" transform="translate(-4.8 5.2) rotate(-5)" fill="#fff"/><rect x="62.1" y="54.7" width="4.7" height="4.66" transform="translate(-4.7 5.8) rotate(-5)" fill="#fff"/><rect x="69.1" y="54.1" width="4.7" height="4.66" transform="translate(-4.6 6.4) rotate(-5)" fill="#fff"/><rect x="27.3" y="57.8" width="4.7" height="4.66" transform="translate(-5.1 2.8) rotate(-5)" fill="#fff"/><rect x="41.8" y="63.2" width="4.7" height="4.66" transform="translate(-5.5 4.1) rotate(-5)" fill="#fff"/><rect x="34.8" y="63.8" width="4.7" height="4.66" transform="translate(-5.6 3.5) rotate(-5)" fill="#fff"/><rect x="48.8" y="62.6" width="4.7" height="4.66" transform="translate(-5.5 4.7) rotate(-5)" fill="#fff"/><rect x="55.7" y="61.9" width="4.7" height="4.66" transform="translate(-5.4 5.3) rotate(-5)" fill="#fff"/><rect x="62.7" y="61.3" width="4.7" height="4.66" transform="translate(-5.3 5.9) rotate(-5)" fill="#fff"/><rect x="69.7" y="60.7" width="4.7" height="4.66" transform="translate(-5.2 6.5) rotate(-5)" fill="#fff"/><rect x="27.9" y="64.4" width="4.7" height="4.66" transform="translate(-5.7 2.9) rotate(-5)" fill="#fff"/><rect x="42.4" y="69.8" width="4.7" height="4.66" transform="translate(-6.1 4.2) rotate(-5)" fill="#fff"/><rect x="35.4" y="70.4" width="4.7" height="4.66" transform="translate(-6.2 3.6) rotate(-5)" fill="#fff"/><rect x="49.3" y="69.2" width="4.7" height="4.66" transform="translate(-6 4.8) rotate(-5)" fill="#fff"/><rect x="56.3" y="68.6" width="4.7" height="4.66" transform="translate(-6 5.4) rotate(-5)" fill="#fff"/><rect x="28.4" y="71" width="4.7" height="4.66" transform="translate(-6.3 3) rotate(-5)" fill="#fff"/></svg>