<svg id="Layer_1" data-name="Layer 1" xmlns="http://www.w3.org/2000/svg" xmlns:xlink="http://www.w3.org/1999/xlink" width="1080" height="1080" viewBox="0 0 1080 1080"><defs><clipPath id="clip-path"><circle cx="540" cy="540" r="420.3" fill="none"/></clipPath><clipPath id="clip-path-2"><circle cx="361.1" cy="221.1" r="98.8" fill="none"/></clipPath><clipPath id="clip-path-3"><circle cx="252.3" cy="476.7" r="131.8" fill="none"/></clipPath><clipPath id="clip-path-4"><path d="M288.8,581.8c12.9,15.8,57.3,58.8,75.5,53.8,9.5-2.6,9.3-24.3,2.2-50.3-10.9-40.2-36.2-89.8-46-103-12.2,0-23,9.2-26.5,13.7,7.8,12.9,15.7,29.6,19.9,46.9a18.3,18.3,0,0,0-5.7-6.4c-9.4-6.8-27.1-6.5-33.8,4.3C266.2,554.2,276.2,566.5,288.8,581.8Z" fill="none"/></clipPath><clipPath id="clip-path-5"><polygon points="789.6 810.7 751.7 810.7 746.4 740.1 795 740.1 789.6 810.7" fill="none"/></clipPath></defs><title>Artboard 1</title><circle cx="540" cy="540" r="420.3" fill="#7cccbd"/><g clip-path="url(#clip-path)"><g opacity="0.2"><rect x="120.6" y="125" width="359" height="514.71" fill="#414142"/><rect x="84.6" y="632.5" width="431" height="23.21" fill="#414142"/><rect x="147.2" y="155.7" width="140.3" height="461.33" fill="#9acaeb"/><rect x="312.7" y="155.7" width="140.3" height="461.33" fill="#9acaeb"/><rect x="283.7" y="327.7" width="32.9" height="100.93" rx="10.7" ry="10.7" fill="#414142"/><polygon points="287.5 155.7 147.2 350.3 147.2 401.4 287.5 210.1 287.5 155.7" fill="#bad8eb" opacity="0.2"/><polygon points="147.2 401.4 147.2 479.4 287.5 288 287.5 210.1 147.2 401.4" fill="#bad8eb" opacity="0.5"/><polygon points="453 269 312.7 463.6 312.7 514.6 453 323.4 453 269" fill="#bad8eb" opacity="0.2"/><polygon points="312.7 514.6 312.7 592.7 453 401.2 453 323.4 312.7 514.6" fill="#bad8eb" opacity="0.5"/><circle cx="756.5" cy="281.7" r="93.7" fill="#595a5c"/><circle cx="756.5" cy="281.7" r="89.2" fill="#414142"/><path d="M684.8,284.7a74.5,74.5,0,0,1,125.8-54.2A74.5,74.5,0,1,0,705.3,335.9,74.3,74.3,0,0,1,684.8,284.7Z" fill="#e6e7e7"/><circle cx="756.5" cy="281.7" r="74.6" fill="#fff"/><path d="M688.2,288a74.6,74.6,0,0,1,124-55.8A74.6,74.6,0,1,0,707,337.5,74.3,74.3,0,0,1,688.2,288Z" fill="#e6e7e7"/><rect x="688.3" y="279.8" width="10.3" height="3.6" fill="#414142"/><rect x="814.4" y="279.8" width="10.3" height="3.6" fill="#414142"/><rect x="751.3" y="342.9" width="10.3" height="3.6" transform="translate(411.8 1101.2) rotate(-90)" fill="#414142"/><rect x="751.3" y="216.8" width="10.3" height="3.6" transform="translate(537.9 975) rotate(-90)" fill="#414142"/><rect x="752.2" y="217.7" width="8.5" height="64.01" fill="#595a5c"/><rect x="772.6" y="257.1" width="8.5" height="49.19" transform="translate(1058.6 -495.1) rotate(90)" fill="#595a5c"/><circle cx="756.5" cy="281.7" r="8.5" fill="#414142"/></g><rect x="342.8" y="935.9" width="381.2" height="46.76" rx="23.4" ry="23.4" fill="#7d868c"/><rect x="498.6" y="975.4" width="69.7" height="212.37" fill="#5c6670"/><rect x="406.9" y="342.1" width="253" height="156.6" rx="78.3" ry="78.3" fill="#7d868c"/><path d="M630.8,906.3H436.1a61.3,61.3,0,0,1-61-55.4L352.8,622.5a93.1,93.1,0,0,1,92.6-102.1h176a93.1,93.1,0,0,1,92.6,102.1L691.8,850.9A61.3,61.3,0,0,1,630.8,906.3Z" fill="#7d868c"/><circle cx="570.6" cy="268.7" r="56.8" fill="#191919"/><path d="M426.8,405.6V372.3a97.6,97.6,0,0,1,97.6-97.6h.2l9,5.8,9.2-5.8h0a97.6,97.6,0,0,1,97.6,97.6v33.3A106.8,106.8,0,0,1,533.6,512.4h0A106.8,106.8,0,0,1,426.8,405.6Z" fill="#191919"/><path d="M564,544.6V495.4H501.6v49.2a9.7,9.7,0,0,1-9.7,9.7H463.4v17.8a70.2,70.2,0,0,0,70.2,70.2h0a70.2,70.2,0,0,0,70.2-70.2V554.3h-30A9.7,9.7,0,0,1,564,544.6Z" fill="#dfb28b"/><path d="M580.8,505.7l-21,16.4a42.5,42.5,0,0,1-52.4,0l-21-16.4a71.9,71.9,0,0,1-27.6-56.6V384.5a74.8,74.8,0,0,1,74.8-74.8h0a74.8,74.8,0,0,1,74.8,74.8v64.6A71.9,71.9,0,0,1,580.8,505.7Z" fill="#ecc19c"/><ellipse cx="457.4" cy="420.4" rx="12.8" ry="23.2" fill="#ecc19c"/><ellipse cx="609.8" cy="420.4" rx="12.8" ry="23.2" fill="#ecc19c"/><path d="M419.1,872.9H648a0,0,0,0,1,0,0v21.3a81.2,81.2,0,0,1-81.2,81.2H500.3a81.2,81.2,0,0,1-81.2-81.2V872.9A0,0,0,0,1,419.1,872.9Z" fill="#333"/><path d="M545.9,302.9h0a0,0,0,0,1,0,0v0A106.2,106.2,0,0,1,439.7,409.1h0a0,0,0,0,1,0,0v0A106.2,106.2,0,0,1,545.9,302.9Z" fill="#191919"/><path d="M521.2,302.9h0A106.2,106.2,0,0,1,627.4,409.1v0a0,0,0,0,1,0,0h0A106.2,106.2,0,0,1,521.2,302.9v0A0,0,0,0,1,521.2,302.9Z" transform="translate(1148.6 711.9) rotate(180)" fill="#191919"/><path d="M429.4,554.7c-38.5-2.5-153.3,184.7-143.5,221.7,8.5,32,116.5,52.7,216.6,64.9,10-8.4,16.4-30.9,16.4-46.5-76.5-10.4-158.4-30.3-162.6-39s61.5-91,79.7-120.5C451.4,610.6,481.2,558.1,429.4,554.7Z" fill="#5e0d8b"/><path d="M637.7,554.7c38.5-2.5,153.3,184.7,143.5,221.7-8.5,32-116.5,52.7-216.6,64.9-10-8.4-16.4-30.9-16.4-46.5,76.5-10.4,158.4-30.3,162.6-39s-61.5-91-79.7-120.5C615.7,610.6,585.9,558.1,637.7,554.7Z" fill="#5e0d8b"/><path d="M667,577.6c-13.3-22.6-26.4-29.3-77.2-23.2-7.3,14.5-56,42.9-56.2,42.8s-48.9-28.3-56.2-42.8c-50.8-6.1-63.8.7-77.2,23.2-17.9,30.3,8.7,135.3,16.1,165.1s2.3,104.5,2.7,143.3c0,8.2,56.4,20.2,113.3,20.2s116-11.9,116-20.2c.4-38.7-4.7-113.7,2.7-143.3S684.9,607.8,667,577.6Z" fill="#5e0d8b"/><path d="M479.6,881.3c44.3-.1,65.7,32.5,47.5,184.6-8.8,73.8-10.4,103.9-10.6,133.3-.2,26.7,2.1,34.1-13.1,39.9-8.3,3.2-26.1,5.1-39.4,2s-14.4-12-17.3-34.1-9.6-133.5-14.5-164.3C412.7,917.8,452.1,881.3,479.6,881.3Z" fill="#333"/><path d="M587.6,881.3c-44.3-.1-65.7,32.5-47.5,184.6,8.8,73.8,10.4,103.9,10.6,133.3.2,26.7-2.1,34.1,13.1,39.9,8.3,3.2,26.1,5.1,39.4,2s14.4-12,17.3-34.1,9.6-133.5,14.5-164.3C654.4,917.8,615,881.3,587.6,881.3Z" fill="#333"/><rect x="107.5" y="812.9" width="851.9" height="56.64" fill="#513628"/><rect x="227.8" y="869.6" width="41.1" height="439.15" fill="#753d29"/><rect x="797.9" y="869.6" width="41.1" height="439.15" fill="#753d29"/><rect x="362.3" y="630.6" width="342.2" height="21.44" rx="10.7" ry="10.7" fill="#959595"/><path d="M677.6,801.8H389.2a3.1,3.1,0,0,1-3.1-2.6l-23.8-157a4.5,4.5,0,0,1,4.4-5.1H700.1a4.5,4.5,0,0,1,4.4,5.1l-23.8,157A3.1,3.1,0,0,1,677.6,801.8Z" fill="#b1b1b1"/><path d="M389.6,801.8H677.2a3.1,3.1,0,0,1,3.1,3.1h0a7.9,7.9,0,0,1-7.9,7.9H394.5a7.9,7.9,0,0,1-7.9-7.9h0A3.1,3.1,0,0,1,389.6,801.8Z" fill="#666766"/><ellipse cx="533.4" cy="719.4" rx="25.4" ry="21.4" fill="#959595"/></g><path d="M351.7,131.7A98.8,98.8,0,0,0,273,290.4l-13,39,41.3-13.8a98.8,98.8,0,1,0,50.3-183.9Z" fill="#1e252b"/><polygon points="319.4 303.3 286.1 270.1 269.5 320 319.4 303.3" fill="#df6420"/><circle cx="361.1" cy="221.1" r="98.8" fill="#df6420"/><g clip-path="url(#clip-path-2)"><path d="M373.8,225.7v-9.6H347.7v9.6a9.7,9.7,0,0,1-9.7,9.7h0v28.9h46V235.5h-.5A9.7,9.7,0,0,1,373.8,225.7Z" fill="#ecc19c"/><path d="M375,225.8l-6.9,4.9a12.2,12.2,0,0,1-14.1,0l-6.9-4.9a30.6,30.6,0,0,1-12.9-25V178.8A26.9,26.9,0,0,1,361,151.9h0a26.9,26.9,0,0,1,26.9,26.9v22.1A30.6,30.6,0,0,1,375,225.8Z" fill="#f0d0b4"/><ellipse cx="333.7" cy="191.7" rx="5.5" ry="10" fill="#f0d0b4"/><ellipse cx="388.3" cy="191.7" rx="5.5" ry="10" fill="#f0d0b4"/><path d="M323.5,339.9h75.1a0,0,0,0,1,0,0v7a26.6,26.6,0,0,1-26.6,26.6H350.1a26.6,26.6,0,0,1-26.6-26.6v-7A0,0,0,0,1,323.5,339.9Z" fill="#333"/><path d="M317.7,237c-17.7,0-46.3,58.6-43.1,70.8,2.8,10.5,43.7,17.8,76.5,21.8,3.3-2.7,5.4-10.1,5.4-15.2-25.1-3.4-55.7-8.8-57.1-11.6s23.9-31,29.9-40.7C334.3,253.9,334.7,237,317.7,237Z" fill="#004987"/><path d="M404.4,237c17.7,0,46.3,58.6,43.1,70.8-2.8,10.5-43.7,17.8-76.5,21.8-3.3-2.7-5.4-10.1-5.4-15.2,25.1-3.4,55.7-8.8,57.1-11.6s-23.9-31-29.9-40.7C387.7,253.9,387.3,237,404.4,237Z" fill="#004987"/><path d="M414.2,243.1c-4.4-7.4-16.2-9.6-32.8-7.6-2.4,4.8-12.4,12.2-20.3,12.2s-17.9-7.4-20.3-12.2c-16.7-2-28.5.2-32.8,7.6-5.9,9.9,7.6,44.3,10,54.1s5.5,34.3,5.6,47c0,2.7,18.5,6.6,37.1,6.6s38-3.9,38-6.6c.1-12.7,3.2-37.3,5.6-47S420,253,414.2,243.1Z" fill="#004987"/><path d="M334,456.6c-9.7,7.1-20.3,16-15.9,23.1s27.8-5.5,34.5-10.8,5.5-7.7,5.5-12.2-4.2-5.6-11.2-5A29.2,29.2,0,0,0,334,456.6Z" fill="#493728"/><path d="M343.3,342.6c14.5,0,21.5,10.6,15.6,60.5-2.9,24.2-3.4,34.1-3.5,43.7s.7,11.2-4.3,13.1a26,26,0,0,1-12.9.6c-3.9-.9-4.7-3.9-5.7-11.2s-3.2-43.8-4.7-53.9C321.4,354.6,334.3,342.6,343.3,342.6Z" fill="#333"/><path d="M388.1,456.6c9.7,7.1,20.3,16,15.9,23.1s-27.8-5.5-34.5-10.8-5.5-7.7-5.5-12.2,4.2-5.6,11.2-5A29.2,29.2,0,0,1,388.1,456.6Z" fill="#493728"/><path d="M378.7,342.6c-14.5,0-21.5,10.6-15.6,60.5,2.9,24.2,3.4,34.1,3.5,43.7s-.7,11.2,4.3,13.1a26,26,0,0,0,12.9.6c3.9-.9,4.7-3.9,5.7-11.2s3.2-43.8,4.7-53.9C400.6,354.6,387.7,342.6,378.7,342.6Z" fill="#333"/><path d="M361,146.9l-1-.5-8.2,2.1a30.8,30.8,0,0,0-19.9,16h0a23.5,23.5,0,0,0-2,15.3l4.2,20.2.7-6.9a31.4,31.4,0,0,1,6.5-16.2h0a9.1,9.1,0,0,1,9.8-3.1h0a33.5,33.5,0,0,0,19.7,0h0a9.1,9.1,0,0,1,9.8,3.1h0a31.4,31.4,0,0,1,6.5,16.2l.7,6.9,4.2-20.2a23.5,23.5,0,0,0-2-15.3h0a30.8,30.8,0,0,0-19.9-16l-8.2-2.1Z" fill="#512c1d"/><rect x="304.9" y="264.3" width="112.2" height="7.03" rx="3.5" ry="3.5" fill="#666766"/><path d="M408.3,320.5H313.7a1,1,0,0,1-1-.9l-7.8-51.5a1.5,1.5,0,0,1,1.4-1.7H415.7a1.5,1.5,0,0,1,1.4,1.7l-7.8,51.5A1,1,0,0,1,408.3,320.5Z" fill="gray"/><path d="M313.9,320.5h94.3a1,1,0,0,1,1,1h0a2.6,2.6,0,0,1-2.6,2.6H315.5a2.6,2.6,0,0,1-2.6-2.6h0A1,1,0,0,1,313.9,320.5Z" fill="#666766"/><ellipse cx="361.1" cy="293.4" rx="8" ry="6.7" fill="#5f5f5f"/><path d="M359.6,192.4a5.7,5.7,0,0,0-4.5-5.1h-.6a46.4,46.4,0,0,0-17,0h-.6a5.5,5.5,0,0,0-3.1,1.7,5.9,5.9,0,0,0-1.5,3.3,13,13,0,0,0,.4,4.7l.4,1.5a5.9,5.9,0,0,0,5.6,4.5h14.5a5.9,5.9,0,0,0,5.6-4.5l.4-1.5a12.9,12.9,0,0,0,.4-4.7Zm-2.5,4.1-.4,1.5a3.7,3.7,0,0,1-3.5,2.8H338.7a3.7,3.7,0,0,1-3.5-2.8l-.4-1.5a10.5,10.5,0,0,1-.3-3.8,3.4,3.4,0,0,1,2.7-3.1h.6a44.3,44.3,0,0,1,16.3,0h.6a3.4,3.4,0,0,1,2.7,3.1A10.5,10.5,0,0,1,357.1,196.5Z" fill="#1e252b"/><path d="M389.8,192.4a5.7,5.7,0,0,0-4.5-5.1h-.6a46.4,46.4,0,0,0-17,0h-.6a5.5,5.5,0,0,0-3.1,1.7,5.9,5.9,0,0,0-1.5,3.3,13,13,0,0,0,.4,4.7l.4,1.5a5.9,5.9,0,0,0,5.6,4.5h14.5a5.9,5.9,0,0,0,5.6-4.5l.4-1.5a12.9,12.9,0,0,0,.4-4.7Zm-2.5,4.1-.4,1.5a3.7,3.7,0,0,1-3.5,2.8H369a3.7,3.7,0,0,1-3.5-2.8l-.4-1.5a10.5,10.5,0,0,1-.3-3.8,3.4,3.4,0,0,1,2.7-3.1h.6a44.3,44.3,0,0,1,16.3,0h.6a3.4,3.4,0,0,1,2.7,3.1A10.5,10.5,0,0,1,387.3,196.5Z" fill="#1e252b"/><path d="M334,195.9h-2.2a1.8,1.8,0,0,1-1.8-1.6l-.3-3a1.8,1.8,0,0,1,1.8-2H334Z" fill="#1e252b"/><path d="M388.2,195.9h2.2a1.8,1.8,0,0,0,1.8-1.6l.3-3a1.8,1.8,0,0,0-1.8-2h-2.5Z" fill="#1e252b"/><path d="M364.2,194.5h0a5,5,0,0,0-6.2,0h0v-5.2h6.2Z" fill="#1e252b"/><path d="M331.8,192.9h0a2.2,2.2,0,0,1-2.2-2.1l-.3-6a1.4,1.4,0,0,1,1.4-1.5h0a1.4,1.4,0,0,1,1.3,1l1.8,5.8A2.2,2.2,0,0,1,331.8,192.9Z" fill="#1e252b"/><path d="M390.3,192.9h0a2.2,2.2,0,0,0,2.2-2.1l.3-6a1.4,1.4,0,0,0-1.4-1.5h0a1.4,1.4,0,0,0-1.3,1l-1.8,5.8A2.2,2.2,0,0,0,390.3,192.9Z" fill="#1e252b"/></g><polygon points="832.3 743 908.5 743 896.5 812.9 844.3 812.9 832.3 743" fill="#df6420"/><polygon points="830.6 767.4 909.8 767.4 913.4 733.2 827 733.2 830.6 767.4" fill="#df6420"/><polygon points="904.3 767.4 836.5 767.4 837.3 772.3 903.8 770.5 904.3 767.4" fill="#923b1f"/><path d="M901.1,733.2c14.8-36.5,44.6-51.5,78.8-55.9,8.4-1.1-.5-6.1-9.6-7.8s-82.9-12.8-86.1,63.7Z" fill="#6cc04a"/><path d="M890.9,733.2c0-30.3,20.6-64.2,67.1-83.3,17.3-7.1,4.6-10.4-13.4-7.5-12.2,1.9-86.4,14.7-72.5,90.8Z" fill="#3fae2a"/><path d="M838.9,733.2c-14.8-36.5-44.6-51.5-78.8-55.9-8.4-1.1.5-6.1,9.6-7.8s82.9-12.8,86.1,63.7Z" fill="#6cc04a"/><path d="M851.9,733.2h21.3c.9-18.3,2.6-73.9-40.9-106.4-38.6-28.9-13.7,2.8-8,11.4S851.9,678.2,851.9,733.2Z" fill="#6cc04a"/><path d="M880,733.2c0-41.3.1-80.7,45.2-109.9,8.4-5.4,6.5-8-10.5-3.8-23.6,5.8-61.7,27.8-57.3,113.6Z" fill="#6cc04a"/><path d="M851.1,733.2c0-30.3-20.6-64.2-67.1-83.3-17.3-7.1-4.6-10.4,13.4-7.5,12.2,1.9,79.5,11.5,72.5,90.8Z" fill="#3fae2a"/><path d="M386.6,607.4l-22.9-68.7A131.9,131.9,0,1,0,327,587.5Z" fill="#1e252b"/><polygon points="372.7 528.1 326.1 574.7 396 598 372.7 528.1" fill="#d3df44"/><circle cx="252.3" cy="476.7" r="131.8" fill="#d3df44"/><g clip-path="url(#clip-path-3)"><path d="M184.5,533.3h0A71.9,71.9,0,0,1,181,507l2.9-74a52.5,52.5,0,0,1,52.4-49.7h0a8.7,8.7,0,0,1,4.7,1.4l2.7,1.7,2.8-1.8a8.7,8.7,0,0,1,4.7-1.4h0A52.5,52.5,0,0,1,303.6,433l2.9,74a71.9,71.9,0,0,1-3.5,26.3h0a9,9,0,0,1-8.5,6.2H193A9,9,0,0,1,184.5,533.3Z" fill="#1b1b1b"/><path d="M260.1,527.9V501.5H226.6v26.4a5.2,5.2,0,0,1-5.2,5.2H206.1v9.5a37.6,37.6,0,0,0,37.6,37.6h0a37.6,37.6,0,0,0,37.6-37.6v-9.5H265.3A5.2,5.2,0,0,1,260.1,527.9Z" fill="#72594b"/><path d="M269,507l-11.3,8.8a22.8,22.8,0,0,1-28.1,0L218.4,507a38.5,38.5,0,0,1-14.8-30.3V442.1A40.1,40.1,0,0,1,243.7,402h0a40.1,40.1,0,0,1,40.1,40.1v34.6A38.5,38.5,0,0,1,269,507Z" fill="#8c715d"/><ellipse cx="203.7" cy="461.4" rx="8.4" ry="12.6" fill="#8c715d"/><ellipse cx="283.8" cy="461.4" rx="8.4" ry="12.6" fill="#8c715d"/><path d="M250.4,398.4h9.4a0,0,0,0,1,0,0v0a56.9,56.9,0,0,1-56.9,56.9h-9.4a0,0,0,0,1,0,0v0A56.9,56.9,0,0,1,250.4,398.4Z" fill="#1b1b1b"/><path d="M296.4,493.4c-3.4-1.3-11-5.4-10.9-11s8.6-8.7,16.5,1.5S301.7,495.4,296.4,493.4Z" fill="#8c715d"/><path d="M243.8,398.4h0A50.2,50.2,0,0,1,294,448.5v6.7a0,0,0,0,1,0,0h0a50.2,50.2,0,0,1-50.2-50.2v-6.7A0,0,0,0,1,243.8,398.4Z" transform="translate(537.8 853.6) rotate(-180)" fill="#1b1b1b"/><rect x="290.4" y="438.6" width="7.1" height="58.74" rx="3.6" ry="3.6" transform="translate(85.7 -43.9) rotate(10)" fill="#b1b1b1"/><path d="M317.6,482.3c-.4-7.2-10.7-32.6-25.5-32.8s-13,28-3.8,29.9,8,8.9,8,14c0,6.8,10.8,8.5,16.3,5.7S318.1,490.3,317.6,482.3Z" fill="#8c715d"/><path d="M179.9,719.4H307.6a0,0,0,0,1,0,0v11.9a45.3,45.3,0,0,1-45.3,45.3H225.2a45.3,45.3,0,0,1-45.3-45.3V719.4A0,0,0,0,1,179.9,719.4Z" fill="#333"/><path d="M315.6,545.5c-7.1-12.1-14.1-15.7-41.3-12.4-3.9,7.8-30,23-30.1,23s-26.2-15.2-30.1-23c-27.2-3.3-34.2.4-41.3,12.4-9.6,16.2,10.9,72.5,14.9,88.5s3.3,56,3.5,76.8c0,8.9,106.1,8.9,106.1,0,.2-20.8-.4-60.9,3.5-76.8S325.1,561.7,315.6,545.5Z" fill="#762057"/><path d="M188,533.3c-18,0-70.2,81.5-70.2,100.3S164,691.4,196,709.8c9.4-6.3,8.9-17.6,10.2-21.5-5.7-6.3-59.5-50.6-54.6-55.4,8-8,30.2-40.5,40-56.3C199.8,563.2,215.8,533.3,188,533.3Z" fill="#762057"/><path d="M288.8,581.8c12.9,15.8,57.3,58.8,75.5,53.8,9.5-2.6,9.3-24.3,2.2-50.3-10.9-40.2-36.2-89.8-46-103-12.2,0-23,9.2-26.5,13.7,7.8,12.9,15.7,29.6,19.9,46.9a18.3,18.3,0,0,0-5.7-6.4c-9.4-6.8-27.1-6.5-33.8,4.3C266.2,554.2,276.2,566.5,288.8,581.8Z" fill="#762057"/><g clip-path="url(#clip-path-4)"><path d="M306.2,520c5.2,5.1,30.8,63.7,32.7,79.9-21-43-26.6-61-25-57C312.1,537.1,309.8,531.9,306.2,520Z" fill="#622650"/></g><polygon points="323.8 742.6 164.4 742.6 145.6 639.2 342.6 639.2 323.8 742.6" fill="gray"/><polygon points="342.6 639.2 145.6 639.2 148.7 636.4 339.5 636.4 342.6 639.2" fill="#666766"/><path d="M200,898.6c-15.7,11.4-32.8,25.8-25.7,37.3s45-8.9,55.9-17.5c8.9-7,8.9-12.5,8.9-19.8s-6.8-9-18.1-8.1C213.8,891.1,204.9,895,200,898.6Z" fill="#493728"/><path d="M287.5,898.6c15.7,11.4,32.8,25.8,25.7,37.3s-45-8.9-55.9-17.5c-8.9-7-8.9-12.5-8.9-19.8s6.8-9,18.1-8.1C273.6,891.1,282.5,895,287.5,898.6Z" fill="#493728"/><path d="M215.1,714.3c23.5,0,34.9,17.2,25.2,97.9-4.7,39.2-5.5,55.1-5.6,70.7s1.1,18.1-6.9,21.2c-4.4,1.7-13.8,2.7-20.9,1s-7.6-6.3-9.2-18.1-5.1-70.8-7.7-87.1C179.6,733.7,200.5,714.3,215.1,714.3Z" fill="#333"/><path d="M272.4,714.3c-23.5,0-34.9,17.2-25.2,97.9,4.7,39.2,5.5,55.1,5.6,70.7s-1.1,18.1,6.9,21.2c4.4,1.7,13.8,2.7,20.9,1s7.6-6.3,9.2-18.1,5.1-70.8,7.7-87.1C307.8,733.7,287,714.3,272.4,714.3Z" fill="#333"/></g><polygon points="789.6 810.7 751.7 810.7 746.4 740.1 795 740.1 789.6 810.7" fill="#e3b87e"/><rect x="743.7" y="736.6" width="54" height="3.47" fill="#f2f2f2"/><rect x="743.7" y="736.6" width="54" height="0.81" fill="#e6e6e5"/><rect x="752.8" y="810.7" width="35.8" height="2.17" fill="#d9a460"/><rect x="742.9" y="734" width="55.5" height="2.62" fill="#f2f2f2"/><polygon points="795.8 734 745.6 734 747.5 730.3 793.9 730.3 795.8 734" fill="#e6e6e5"/><g clip-path="url(#clip-path-5)"><rect x="746.5" y="755.7" width="48.2" height="1.75" transform="translate(1541.3 1513.2) rotate(-180)" fill="#d9a460"/><rect x="746.5" y="787" width="48.2" height="1.75" transform="translate(1541.3 1575.7) rotate(-180)" fill="#d9a460"/><rect x="737.5" y="756.6" width="66.4" height="31.24" transform="translate(1541.4 1544.5) rotate(-180)" fill="#a96419"/><rect x="743.8" y="738.6" width="53.9" height="3.98" transform="translate(1541.5 1481.2) rotate(-180)" fill="#d9a460"/></g><rect x="533.4" y="812.9" width="426" height="56.64" fill="#513628"/></svg>