<?xml version="1.0" encoding="UTF-8" standalone="no"?>
<!DOCTYPE svg PUBLIC "-//W3C//DTD SVG 1.1//EN" "http://www.w3.org/Graphics/SVG/1.1/DTD/svg11.dtd">
<svg width="100%" height="100%" viewBox="0 0 1920 180" version="1.1" xmlns="http://www.w3.org/2000/svg" xmlns:xlink="http://www.w3.org/1999/xlink" xml:space="preserve" xmlns:serif="http://www.serif.com/" style="fill-rule:evenodd;clip-rule:evenodd;stroke-linejoin:round;stroke-miterlimit:2;">
    <g transform="matrix(1,0,0,1,0,-123.96)">
        <path d="M29.1,134.2L29.1,144.5C28.587,144.462 28.072,144.443 27.557,144.443C16.092,144.443 6.657,153.878 6.657,165.343C6.657,176.808 16.092,186.243 27.557,186.243C39.022,186.243 48.457,176.808 48.457,165.343C48.457,164.828 48.438,164.313 48.4,163.8L58.7,163.8C58.732,164.374 58.748,164.949 58.748,165.525C58.748,182.64 44.664,196.725 27.548,196.725C12.19,196.725 -0.999,185.385 -3.3,170.2L3.3,163.6L-2.7,157.5C0.976,143.186 14.341,133.351 29.1,134.1" style="fill:rgb(0,138,177);fill-rule:nonzero;"/>
        <path d="M-21.8,185.2L-36.8,200.2L-44.1,192.9L-7.5,156.4L-0.2,163.7L-14.5,177.9L22.4,214.7L15.1,222.1L-21.8,185.2Z" style="fill:rgb(0,138,177);fill-rule:nonzero;"/>
        <path d="M138.7,159.7L138.7,170C138.184,169.962 137.667,169.942 137.15,169.942C125.684,169.942 116.25,179.377 116.25,190.842C116.25,202.308 125.684,211.742 137.15,211.742C148.615,211.742 158.05,202.308 158.05,190.842C158.05,190.361 158.033,189.88 158,189.4L168.3,189.4C168.332,189.974 168.348,190.549 168.348,191.125C168.348,208.24 154.264,222.325 137.148,222.325C121.79,222.325 108.601,210.985 106.3,195.8L112.9,189.2L106.9,183.1C110.576,168.786 123.941,158.951 138.7,159.7" style="fill:rgb(0,105,140);fill-rule:nonzero;"/>
        <path d="M87.8,210.7L72.8,225.7L65.5,218.4L102,181.8L109.3,189.1L95.1,203.4L131.9,240.2L124.6,247.5L87.8,210.7Z" style="fill:rgb(0,105,140);fill-rule:nonzero;"/>
        <path d="M160.6,229.3L160.6,219C161.113,219.038 161.628,219.057 162.143,219.057C173.608,219.057 183.043,209.622 183.043,198.157C183.043,186.692 173.608,177.257 162.143,177.257C150.678,177.257 141.243,186.692 141.243,198.157C141.243,198.672 141.262,199.187 141.3,199.7L131,199.7C130.968,199.126 130.952,198.551 130.952,197.975C130.952,180.86 145.036,166.775 162.152,166.775C177.51,166.775 190.699,178.115 193,193.3L186.4,199.9L192.4,206C188.724,220.314 175.359,230.149 160.6,229.4" style="fill:rgb(0,138,177);fill-rule:nonzero;"/>
        <path d="M211.5,178.4L226.5,163.4L233.8,170.7L197.3,207.2L190,199.9L204.2,185.7L167.3,148.8L174.7,141.5L211.5,178.4Z" style="fill:rgb(0,138,177);fill-rule:nonzero;"/>
        <path d="M0.2,220.9L0.2,231.2C-5.858,230.767 -11.814,232.996 -16.1,237.3C-20.031,241.22 -22.243,246.549 -22.243,252.1C-22.243,257.651 -20.031,262.98 -16.1,266.9C-12.18,270.831 -6.851,273.043 -1.3,273.043C4.251,273.043 9.58,270.831 13.5,266.9C17.804,262.614 20.033,256.658 19.6,250.6L29.9,250.6C30.347,259.396 27.037,267.981 20.8,274.2C14.948,280.072 6.99,283.377 -1.3,283.377C-9.59,283.377 -17.548,280.072 -23.4,274.2C-28.084,269.547 -31.167,263.521 -32.2,257L-25.6,250.4L-31.6,244.3C-30.203,238.883 -27.37,233.942 -23.4,230C-17.181,223.763 -8.596,220.453 0.2,220.9" style="fill:rgb(0,105,140);fill-rule:nonzero;"/>
        <path d="M22.2,290.5L22.2,280.2C22.716,280.238 23.233,280.258 23.75,280.258C35.216,280.258 44.65,270.823 44.65,259.358C44.65,247.892 35.216,238.458 23.75,238.458C12.285,238.458 2.85,247.892 2.85,259.358C2.85,259.839 2.867,260.32 2.9,260.8L-7.5,260.8C-7.532,260.226 -7.548,259.651 -7.548,259.075C-7.548,241.96 6.536,227.875 23.652,227.875C39.01,227.875 52.199,239.215 54.5,254.4L47.9,261L53.9,267.1C50.224,281.414 36.859,291.249 22.1,290.5" style="fill:rgb(124,204,189);fill-rule:nonzero;"/>
        <path d="M73,239.5L88,224.5L95.4,231.8L58.8,268.4L51.5,261.1L65.7,246.8L28.9,210L36.2,202.7L73,239.5Z" style="fill:rgb(124,204,189);fill-rule:nonzero;"/>
        <path d="M386.7,124L386.7,134.3C386.184,134.262 385.667,134.242 385.15,134.242C373.684,134.242 364.25,143.677 364.25,155.142C364.25,166.608 373.684,176.042 385.15,176.042C396.615,176.042 406.05,166.608 406.05,155.142C406.05,154.661 406.033,154.18 406,153.7L416.3,153.7C416.332,154.274 416.348,154.849 416.348,155.425C416.348,172.54 402.264,186.625 385.148,186.625C369.79,186.625 356.601,175.285 354.3,160.1L360.9,153.5L354.9,147.4C358.576,133.086 371.941,123.251 386.7,124" style="fill:rgb(0,105,140);fill-rule:nonzero;"/>
        <path d="M335.8,175L320.8,190L313.5,182.7L350.1,146.2L357.4,153.5L343.1,167.7L380,204.6L372.7,211.9L335.8,175Z" style="fill:rgb(0,105,140);fill-rule:nonzero;"/>
        <path d="M248.2,185.2L248.2,195.5C247.687,195.462 247.172,195.443 246.657,195.443C235.192,195.443 225.757,204.878 225.757,216.343C225.757,227.808 235.192,237.243 246.657,237.243C258.122,237.243 267.557,227.808 267.557,216.343C267.557,215.828 267.538,215.313 267.5,214.8L277.8,214.8C277.832,215.374 277.848,215.949 277.848,216.525C277.848,233.64 263.764,247.725 246.648,247.725C231.29,247.725 218.101,236.385 215.8,221.2L222.4,214.6L216.4,208.5C220.076,194.186 233.441,184.351 248.2,185.1" style="fill:rgb(211,223,68);fill-rule:nonzero;"/>
        <path d="M197.4,236.2L182.4,251.2L175.1,243.9L211.6,207.3L218.9,214.6L204.7,228.9L241.5,265.7L234.2,273L197.4,236.2Z" style="fill:rgb(211,223,68);fill-rule:nonzero;"/>
        <path d="M270.2,254.8L270.2,244.5C270.713,244.538 271.228,244.557 271.743,244.557C283.208,244.557 292.643,235.122 292.643,223.657C292.643,212.192 283.208,202.757 271.743,202.757C260.278,202.757 250.843,212.192 250.843,223.657C250.843,224.172 250.862,224.687 250.9,225.2L240.6,225.2C240.568,224.626 240.552,224.051 240.552,223.475C240.552,206.36 254.636,192.275 271.752,192.275C287.11,192.275 300.299,203.615 302.6,218.8L296,225.4L302,231.5C298.324,245.814 284.959,255.649 270.2,254.9" style="fill:rgb(124,204,189);fill-rule:nonzero;"/>
        <path d="M321.1,203.8L336.1,188.8L343.4,196.1L306.8,232.7L299.5,225.4L313.8,211.1L276.9,174.3L284.2,167L321.1,203.8Z" style="fill:rgb(124,204,189);fill-rule:nonzero;"/>
        <path d="M109.8,246.4L109.8,256.7C109.287,256.662 108.772,256.643 108.257,256.643C96.792,256.643 87.357,266.078 87.357,277.543C87.357,289.008 96.792,298.443 108.257,298.443C119.722,298.443 129.157,289.008 129.157,277.543C129.157,277.028 129.138,276.513 129.1,276L139.4,276C139.432,276.574 139.448,277.149 139.448,277.725C139.448,294.84 125.364,308.925 108.248,308.925C92.89,308.925 79.701,297.585 77.4,282.4L84,275.8L78,269.7C81.676,255.386 95.041,245.551 109.8,246.3" style="fill:rgb(0,105,140);fill-rule:nonzero;"/>
        <path d="M58.9,297.3L43.9,312.3L36.6,305L73.1,268.5L80.5,275.8L66.2,290L103.1,326.9L95.8,334.2L58.9,297.3Z" style="fill:rgb(0,105,140);fill-rule:nonzero;"/>
        <path d="M131.8,316L131.8,305.6C132.313,305.638 132.828,305.657 133.343,305.657C144.808,305.657 154.243,296.222 154.243,284.757C154.243,273.292 144.808,263.857 133.343,263.857C121.878,263.857 112.443,273.292 112.443,284.757C112.443,285.272 112.462,285.787 112.5,286.3L102.1,286.3C102.068,285.726 102.052,285.151 102.052,284.575C102.052,267.46 116.136,253.375 133.252,253.375C148.61,253.375 161.799,264.715 164.1,279.9L157.5,286.5L163.5,292.6C159.832,306.876 146.523,316.7 131.8,316" style="fill:rgb(223,100,32);fill-rule:nonzero;"/>
        <path d="M182.6,265L197.6,250L204.9,257.3L168.4,293.8L161.1,286.5L175.3,272.3L138.5,235.4L145.8,228.1L182.6,265Z" style="fill:rgb(223,100,32);fill-rule:nonzero;"/>
        <path d="M44.2,326.2L59.2,311.2L66.5,318.5L29.9,355L22.6,347.7L36.9,333.5L0,296.6L7.3,289.3L44.2,326.2Z" style="fill:rgb(0,138,177);fill-rule:nonzero;"/>
        <path d="M496.3,149.5L496.3,159.8C495.787,159.762 495.272,159.743 494.757,159.743C483.292,159.743 473.857,169.178 473.857,180.643C473.857,192.108 483.292,201.543 494.757,201.543C506.222,201.543 515.657,192.108 515.657,180.643C515.657,180.128 515.638,179.613 515.6,179.1L525.9,179.1C525.932,179.674 525.948,180.249 525.948,180.825C525.948,197.94 511.864,212.025 494.748,212.025C479.39,212.025 466.201,200.685 463.9,185.5L470.5,178.9L464.5,172.8C468.176,158.486 481.541,148.651 496.3,149.4" style="fill:rgb(223,100,32);fill-rule:nonzero;"/>
        <path d="M445.4,200.5L430.4,215.5L423.1,208.2L459.6,171.6L466.9,178.9L452.7,193.2L489.6,230L482.2,237.3L445.4,200.5Z" style="fill:rgb(223,100,32);fill-rule:nonzero;"/>
        <path d="M518.2,219.1L518.2,208.8C518.713,208.838 519.228,208.857 519.743,208.857C531.208,208.857 540.643,199.422 540.643,187.957C540.643,176.492 531.208,167.057 519.743,167.057C508.278,167.057 498.843,176.492 498.843,187.957C498.843,188.472 498.862,188.987 498.9,189.5L488.6,189.5C488.568,188.926 488.552,188.351 488.552,187.775C488.552,170.66 502.636,156.575 519.752,156.575C535.11,156.575 548.299,167.915 550.6,183.1L544,189.7L550,195.8C546.324,210.114 532.959,219.949 518.2,219.2" style="fill:rgb(0,105,140);fill-rule:nonzero;"/>
        <path d="M569.1,168.2L584.1,153.2L591.4,160.5L554.9,197L547.6,189.7L561.8,175.5L525,138.6L532.3,131.3L569.1,168.2Z" style="fill:rgb(0,105,140);fill-rule:nonzero;"/>
        <path d="M357.8,210.7L357.8,221C357.287,220.962 356.772,220.943 356.257,220.943C344.792,220.943 335.357,230.378 335.357,241.843C335.357,253.308 344.792,262.743 356.257,262.743C367.722,262.743 377.157,253.308 377.157,241.843C377.157,241.328 377.138,240.813 377.1,240.3L387.4,240.3C387.432,240.874 387.448,241.449 387.448,242.025C387.448,259.14 373.364,273.225 356.248,273.225C340.89,273.225 327.701,261.885 325.4,246.7L332,240.1L326,234C329.676,219.686 343.041,209.851 357.8,210.6" style="fill:rgb(0,105,140);fill-rule:nonzero;"/>
        <path d="M306.9,261.6L291.9,276.6L284.6,269.3L321.2,232.8L328.5,240.1L314.2,254.3L351.1,291.2L343.8,298.5L306.9,261.6Z" style="fill:rgb(0,105,140);fill-rule:nonzero;"/>
        <path d="M379.8,280.3L379.8,270C380.313,270.038 380.828,270.057 381.343,270.057C392.808,270.057 402.243,260.622 402.243,249.157C402.243,237.692 392.808,228.257 381.343,228.257C369.878,228.257 360.443,237.692 360.443,249.157C360.443,249.672 360.462,250.187 360.5,250.7L350.1,250.7C350.068,250.126 350.052,249.551 350.052,248.975C350.052,231.86 364.136,217.775 381.252,217.775C396.61,217.775 409.799,229.115 412.1,244.3L405.5,250.9L411.5,257C407.824,271.314 394.459,281.149 379.7,280.4" style="fill:rgb(0,138,177);fill-rule:nonzero;"/>
        <path d="M430.7,229.3L445.7,214.3L453,221.6L416.4,258.2L409.1,250.9L423.4,236.6L386.5,199.8L393.8,192.5L430.7,229.3Z" style="fill:rgb(0,138,177);fill-rule:nonzero;"/>
        <path d="M219.4,271.8L219.4,282.1C218.887,282.062 218.372,282.043 217.857,282.043C206.392,282.043 196.957,291.478 196.957,302.943C196.957,314.408 206.392,323.843 217.857,323.843C229.322,323.843 238.757,314.408 238.757,302.943C238.757,302.428 238.738,301.913 238.7,301.4L249,301.4C249.032,301.974 249.048,302.549 249.048,303.125C249.048,320.24 234.964,334.325 217.848,334.325C202.49,334.325 189.301,322.985 187,307.8L193.6,301.2L187.6,295.1C191.276,280.786 204.641,270.951 219.4,271.7" style="fill:rgb(0,105,140);fill-rule:nonzero;"/>
        <path d="M168.5,322.8L153.5,337.8L146.2,330.5L182.7,294L190,301.3L175.8,315.5L212.6,352.4L205.3,359.7L168.5,322.8Z" style="fill:rgb(0,105,140);fill-rule:nonzero;"/>
        <path d="M241.3,341.4L241.3,331.1C241.813,331.138 242.328,331.157 242.843,331.157C254.308,331.157 263.743,321.722 263.743,310.257C263.743,298.792 254.308,289.357 242.843,289.357C231.378,289.357 221.943,298.792 221.943,310.257C221.943,310.772 221.962,311.287 222,311.8L211.7,311.8C211.668,311.226 211.652,310.651 211.652,310.075C211.652,292.96 225.736,278.875 242.852,278.875C258.21,278.875 271.399,290.215 273.7,305.4L267.1,312L273.1,318.1C269.424,332.414 256.059,342.249 241.3,341.5" style="fill:rgb(0,138,177);fill-rule:nonzero;"/>
        <path d="M292.2,290.5L307.2,275.5L314.5,282.8L278,319.3L270.7,312L284.9,297.8L248,260.9L255.3,253.6L292.2,290.5Z" style="fill:rgb(0,138,177);fill-rule:nonzero;"/>
        <path d="M605.8,175L605.8,185.3C605.287,185.262 604.772,185.243 604.257,185.243C592.792,185.243 583.357,194.678 583.357,206.143C583.357,217.608 592.792,227.043 604.257,227.043C615.722,227.043 625.157,217.608 625.157,206.143C625.157,205.628 625.138,205.113 625.1,204.6L635.4,204.6C635.432,205.174 635.448,205.749 635.448,206.325C635.448,223.44 621.364,237.525 604.248,237.525C588.89,237.525 575.701,226.185 573.4,211L580,204.4L574,198.3C577.715,184.026 591.07,174.241 605.8,175" style="fill:rgb(124,204,189);fill-rule:nonzero;"/>
        <path d="M555,226L540,241L532.7,233.7L569.2,197.1L576.5,204.4L562.3,218.7L599.1,255.5L591.8,262.8L555,226Z" style="fill:rgb(124,204,189);fill-rule:nonzero;"/>
        <path d="M627.8,244.6L627.8,234.3C628.313,234.338 628.828,234.357 629.343,234.357C640.808,234.357 650.243,224.922 650.243,213.457C650.243,201.992 640.808,192.557 629.343,192.557C617.878,192.557 608.443,201.992 608.443,213.457C608.443,213.972 608.462,214.487 608.5,215L598.2,215C598.168,214.426 598.152,213.851 598.152,213.275C598.152,196.16 612.236,182.075 629.352,182.075C644.71,182.075 657.899,193.415 660.2,208.6L653.6,215.2L659.6,221.3C655.924,235.614 642.559,245.449 627.8,244.7" style="fill:rgb(0,138,177);fill-rule:nonzero;"/>
        <path d="M678.7,193.6L693.7,178.6L701,185.9L664.5,222.5L657.1,215.2L671.4,200.9L634.5,164.1L641.8,156.8L678.7,193.6Z" style="fill:rgb(0,138,177);fill-rule:nonzero;"/>
        <path d="M467.4,236.2L467.4,246.5C466.887,246.462 466.372,246.443 465.857,246.443C454.392,246.443 444.957,255.878 444.957,267.343C444.957,278.808 454.392,288.243 465.857,288.243C477.322,288.243 486.757,278.808 486.757,267.343C486.757,266.828 486.738,266.313 486.7,265.8L497,265.8C497.032,266.374 497.048,266.949 497.048,267.525C497.048,284.64 482.964,298.725 465.848,298.725C450.49,298.725 437.301,287.385 435,272.2L441.6,265.6L435.6,259.5C439.276,245.186 452.641,235.351 467.4,236.1" style="fill:rgb(211,223,68);fill-rule:nonzero;"/>
        <path d="M416.5,287.1L401.5,302.1L394.2,294.8L430.8,258.3L438.1,265.6L423.8,279.8L460.7,316.7L453.4,324L416.5,287.1Z" style="fill:rgb(211,223,68);fill-rule:nonzero;"/>
        <path d="M489.4,305.8L489.4,295.4C489.88,295.433 490.361,295.45 490.842,295.45C502.308,295.45 511.742,286.015 511.742,274.55C511.742,263.084 502.308,253.65 490.842,253.65C479.377,253.65 469.942,263.084 469.942,274.55C469.942,275.067 469.962,275.584 470,276.1L459.7,276.1C459.668,275.526 459.652,274.951 459.652,274.375C459.652,257.26 473.736,243.175 490.852,243.175C506.21,243.175 519.399,254.515 521.7,269.7L515.1,276.3L521.1,282.4C517.424,296.714 504.059,306.549 489.3,305.8" style="fill:rgb(0,105,140);fill-rule:nonzero;"/>
        <path d="M540.2,254.8L555.2,239.8L562.5,247.1L526,283.7L518.7,276.3L532.9,262.1L496.1,225.3L503.4,217.9L540.2,254.8Z" style="fill:rgb(0,105,140);fill-rule:nonzero;"/>
        <path d="M328.9,297.3L328.9,307.6C328.418,307.566 327.934,307.55 327.45,307.55C315.985,307.55 306.55,316.984 306.55,328.45C306.55,339.915 315.985,349.35 327.45,349.35C338.916,349.35 348.35,339.915 348.35,328.45C348.35,327.966 348.334,327.482 348.3,327L358.6,327C358.632,327.574 358.648,328.149 358.648,328.725C358.648,345.84 344.564,359.925 327.448,359.925C312.09,359.925 298.901,348.585 296.6,333.4L303.2,326.8L297.2,320.7C300.876,306.386 314.241,296.551 329,297.3" style="fill:rgb(223,100,32);fill-rule:nonzero;"/>
        <path d="M401.8,316L416.8,301L424.1,308.3L387.5,344.8L380.2,337.5L394.5,323.3L357.6,286.4L364.9,279.1L401.8,316Z" style="fill:rgb(124,204,189);fill-rule:nonzero;"/>
        <path d="M853.9,139.3L853.9,149.6C853.384,149.562 852.867,149.542 852.35,149.542C840.884,149.542 831.45,158.977 831.45,170.442C831.45,181.908 840.884,191.342 852.35,191.342C863.815,191.342 873.25,181.908 873.25,170.442C873.25,169.961 873.233,169.48 873.2,169L883.5,169C883.532,169.574 883.548,170.149 883.548,170.725C883.548,187.84 869.464,201.925 852.348,201.925C836.99,201.925 823.801,190.585 821.5,175.4L828.1,168.8L822.1,162.7C825.776,148.386 839.141,138.551 853.9,139.3" style="fill:rgb(0,105,140);fill-rule:nonzero;"/>
        <path d="M803,190.3L788,205.3L780.7,198L817.2,161.4L824.6,168.8L810.3,183L847.2,219.8L839.9,227.2L803,190.3Z" style="fill:rgb(0,105,140);fill-rule:nonzero;"/>
        <path d="M715.4,200.5L715.4,210.8C714.887,210.762 714.372,210.743 713.857,210.743C702.392,210.743 692.957,220.178 692.957,231.643C692.957,243.108 702.392,252.543 713.857,252.543C725.322,252.543 734.757,243.108 734.757,231.643C734.757,231.128 734.738,230.613 734.7,230.1L745,230.1C745.032,230.674 745.048,231.249 745.048,231.825C745.048,248.94 730.964,263.025 713.848,263.025C698.49,263.025 685.301,251.685 683,236.5L689.6,229.9L683.6,223.8C687.276,209.486 700.641,199.651 715.4,200.4" style="fill:rgb(223,100,32);fill-rule:nonzero;"/>
        <path d="M664.5,251.5L649.6,266.5L642.2,259.1L678.8,222.6L686.1,229.9L671.9,244.2L708.7,281L701.4,288.3L664.5,251.5Z" style="fill:rgb(223,100,32);fill-rule:nonzero;"/>
        <path d="M737.4,270.1L737.4,259.8C737.913,259.838 738.428,259.857 738.943,259.857C750.408,259.857 759.843,250.422 759.843,238.957C759.843,227.492 750.408,218.057 738.943,218.057C727.478,218.057 718.043,227.492 718.043,238.957C718.043,239.472 718.062,239.987 718.1,240.5L707.7,240.5C707.668,239.926 707.652,239.351 707.652,238.775C707.652,221.66 721.736,207.575 738.852,207.575C754.21,207.575 767.399,218.915 769.7,234.1L763.1,240.7L769.1,246.8C765.424,261.114 752.059,270.949 737.3,270.2" style="fill:rgb(124,204,189);fill-rule:nonzero;"/>
        <path d="M788.3,219.1L803.3,204.1L810.6,211.4L774,248L766.7,240.7L781,226.4L744.1,189.6L751.4,182.3L788.3,219.1Z" style="fill:rgb(124,204,189);fill-rule:nonzero;"/>
        <path d="M577,261.6L577,272C576.487,271.962 575.972,271.943 575.457,271.943C563.992,271.943 554.557,281.378 554.557,292.843C554.557,304.308 563.992,313.743 575.457,313.743C586.922,313.743 596.357,304.308 596.357,292.843C596.357,292.328 596.338,291.813 596.3,291.3L606.6,291.3C606.632,291.874 606.648,292.449 606.648,293.025C606.648,310.14 592.564,324.225 575.448,324.225C560.09,324.225 546.901,312.885 544.6,297.7L551.2,291.1L545.2,285C548.876,270.686 562.241,260.851 577,261.6" style="fill:rgb(0,138,177);fill-rule:nonzero;"/>
        <path d="M526.1,312.6L511.1,327.6L503.8,320.3L540.3,283.8L547.6,291.1L533.4,305.3L570.3,342.2L562.9,349.5L526.1,312.6Z" style="fill:rgb(0,138,177);fill-rule:nonzero;"/>
        <path d="M598.9,331.3L598.9,320.9C599.413,320.938 599.928,320.957 600.443,320.957C611.908,320.957 621.343,311.522 621.343,300.057C621.343,288.592 611.908,279.157 600.443,279.157C588.978,279.157 579.543,288.592 579.543,300.057C579.543,300.572 579.562,301.087 579.6,301.6L569.3,301.6C569.268,301.026 569.252,300.451 569.252,299.875C569.252,282.76 583.336,268.675 600.452,268.675C615.81,268.675 628.999,280.015 631.3,295.2L624.7,301.8L630.7,307.9C627.024,322.214 613.659,332.049 598.9,331.3" style="fill:rgb(211,223,68);fill-rule:nonzero;"/>
        <path d="M649.8,280.3L664.8,265.3L672.1,272.6L635.6,309.1L628.3,301.8L642.5,287.6L605.7,250.7L613,243.4L649.8,280.3Z" style="fill:rgb(211,223,68);fill-rule:nonzero;"/>
        <path d="M963.4,164.8L963.4,175.1C962.887,175.062 962.372,175.043 961.857,175.043C950.392,175.043 940.957,184.478 940.957,195.943C940.957,207.408 950.392,216.843 961.857,216.843C973.322,216.843 982.757,207.408 982.757,195.943C982.757,195.428 982.738,194.913 982.7,194.4L993,194.4C993.032,194.974 993.048,195.549 993.048,196.125C993.048,213.24 978.964,227.325 961.848,227.325C946.49,227.325 933.301,215.985 931,200.8L937.6,194.2L931.6,188.1C935.276,173.786 948.641,163.951 963.4,164.7" style="fill:rgb(124,204,189);fill-rule:nonzero;"/>
        <path d="M912.6,215.8L897.6,230.8L890.3,223.5L926.8,186.9L934.1,194.2L919.9,208.5L956.7,245.3L949.4,252.6L912.6,215.8Z" style="fill:rgb(124,204,189);fill-rule:nonzero;"/>
        <path d="M985.4,234.4L985.4,224.1C985.913,224.138 986.428,224.157 986.943,224.157C998.408,224.157 1007.84,214.722 1007.84,203.257C1007.84,191.792 998.408,182.357 986.943,182.357C975.478,182.357 966.043,191.792 966.043,203.257C966.043,203.772 966.062,204.287 966.1,204.8L955.8,204.8C955.768,204.226 955.752,203.651 955.752,203.075C955.752,185.96 969.836,171.875 986.952,171.875C1002.31,171.875 1015.5,183.215 1017.8,198.4L1011.2,205L1017.2,211.1C1013.52,225.414 1000.16,235.249 985.4,234.5" style="fill:rgb(0,105,140);fill-rule:nonzero;"/>
        <path d="M1036.3,183.4L1051.3,168.4L1058.6,175.8L1022.1,212.3L1014.8,205L1029,190.8L992.1,153.9L999.4,146.6L1036.3,183.4Z" style="fill:rgb(0,105,140);fill-rule:nonzero;"/>
        <path d="M825,226L825,236.3C824.487,236.262 823.972,236.243 823.457,236.243C811.992,236.243 802.557,245.678 802.557,257.143C802.557,268.608 811.992,278.043 823.457,278.043C834.922,278.043 844.357,268.608 844.357,257.143C844.357,256.628 844.338,256.113 844.3,255.6L854.6,255.6C854.632,256.174 854.648,256.749 854.648,257.325C854.648,274.44 840.564,288.525 823.448,288.525C808.09,288.525 794.901,277.185 792.6,262L799.2,255.4L793.2,249.3C796.915,235.026 810.27,225.241 825,226" style="fill:rgb(211,223,68);fill-rule:nonzero;"/>
        <path d="M774.1,276.9L759.1,291.9L751.8,284.6L788.4,248.1L795.7,255.4L781.4,269.6L818.3,306.5L811,313.8L774.1,276.9Z" style="fill:rgb(211,223,68);fill-rule:nonzero;"/>
        <path d="M847,295.6L847,285.3C847.513,285.338 848.028,285.357 848.543,285.357C860.008,285.357 869.443,275.922 869.443,264.457C869.443,252.992 860.008,243.557 848.543,243.557C837.078,243.557 827.643,252.992 827.643,264.457C827.643,264.972 827.662,265.487 827.7,266L817.3,266C817.268,265.426 817.252,264.851 817.252,264.275C817.252,247.16 831.336,233.075 848.452,233.075C863.81,233.075 876.999,244.415 879.3,259.6L872.7,266.2L878.7,272.3C874.992,286.537 861.694,296.311 847,295.6" style="fill:rgb(0,105,140);fill-rule:nonzero;"/>
        <path d="M897.8,244.6L912.8,229.6L920.1,236.9L883.6,273.5L876.3,266.2L890.5,251.9L853.7,215.1L861,207.8L897.8,244.6Z" style="fill:rgb(0,105,140);fill-rule:nonzero;"/>
        <path d="M686.5,287.1L686.5,297.4C685.987,297.362 685.472,297.343 684.957,297.343C673.492,297.343 664.057,306.778 664.057,318.243C664.057,329.708 673.492,339.143 684.957,339.143C696.422,339.143 705.857,329.708 705.857,318.243C705.857,317.728 705.838,317.213 705.8,316.7L716.1,316.7C716.132,317.274 716.148,317.849 716.148,318.425C716.148,335.54 702.064,349.625 684.948,349.625C669.59,349.625 656.401,338.285 654.1,323.1L660.7,316.5L654.7,310.4C658.376,296.086 671.741,286.251 686.5,287" style="fill:rgb(124,204,189);fill-rule:nonzero;"/>
        <path d="M708.5,356.7L708.5,346.4C709.013,346.438 709.528,346.457 710.043,346.457C721.508,346.457 730.943,337.022 730.943,325.557C730.943,314.092 721.508,304.657 710.043,304.657C698.578,304.657 689.143,314.092 689.143,325.557C689.143,326.072 689.162,326.587 689.2,327.1L678.9,327.1C678.868,326.526 678.852,325.951 678.852,325.375C678.852,308.26 692.936,294.175 710.052,294.175C725.41,294.175 738.599,305.515 740.9,320.7L734.3,327.3L740.3,333.4C736.624,347.714 723.259,357.549 708.5,356.8" style="fill:rgb(0,138,177);fill-rule:nonzero;"/>
        <path d="M759.4,305.8L774.4,290.8L781.7,298.1L745.1,334.6L737.8,327.3L752.1,313.1L715.2,276.2L722.5,268.9L759.4,305.8Z" style="fill:rgb(0,138,177);fill-rule:nonzero;"/>
        <path d="M1211.5,129.1L1211.5,139.4C1210.99,139.362 1210.47,139.343 1209.96,139.343C1198.49,139.343 1189.06,148.778 1189.06,160.243C1189.06,171.708 1198.49,181.143 1209.96,181.143C1221.42,181.143 1230.86,171.708 1230.86,160.243C1230.86,159.728 1230.84,159.213 1230.8,158.7L1241.1,158.7C1241.13,159.274 1241.15,159.849 1241.15,160.425C1241.15,177.54 1227.06,191.625 1209.95,191.625C1194.59,191.625 1181.4,180.285 1179.1,165.1L1185.7,158.5L1179.7,152.4C1183.38,138.086 1196.74,128.251 1211.5,129" style="fill:rgb(0,105,140);fill-rule:nonzero;"/>
        <path d="M1160.6,180.1L1145.6,195.1L1138.3,187.8L1174.9,151.3L1182.2,158.6L1167.9,172.8L1204.8,209.7L1197.5,217L1160.6,180.1Z" style="fill:rgb(0,105,140);fill-rule:nonzero;"/>
        <path d="M1073,190.3L1073,200.6C1072.49,200.562 1071.97,200.543 1071.46,200.543C1059.99,200.543 1050.56,209.978 1050.56,221.443C1050.56,232.908 1059.99,242.343 1071.46,242.343C1082.92,242.343 1092.36,232.908 1092.36,221.443C1092.36,220.928 1092.34,220.413 1092.3,219.9L1102.6,219.9C1102.63,220.474 1102.65,221.049 1102.65,221.625C1102.65,238.74 1088.56,252.825 1071.45,252.825C1056.09,252.825 1042.9,241.485 1040.6,226.3L1047.2,219.7L1041.2,213.6C1044.88,199.286 1058.24,189.451 1073,190.2" style="fill:rgb(0,138,177);fill-rule:nonzero;"/>
        <path d="M1022.2,241.3L1007.2,256.3L999.9,249L1036.4,212.4L1043.7,219.7L1029.5,234L1066.3,270.8L1059,278.1L1022.2,241.3Z" style="fill:rgb(0,138,177);fill-rule:nonzero;"/>
        <path d="M1095,259.9L1095,249.6C1095.51,249.638 1096.03,249.657 1096.54,249.657C1108.01,249.657 1117.44,240.222 1117.44,228.757C1117.44,217.292 1108.01,207.857 1096.54,207.857C1085.08,207.857 1075.64,217.292 1075.64,228.757C1075.64,229.272 1075.66,229.787 1075.7,230.3L1065.4,230.3C1065.37,229.726 1065.35,229.151 1065.35,228.575C1065.35,211.46 1079.44,197.375 1096.55,197.375C1111.91,197.375 1125.1,208.715 1127.4,223.9L1120.8,230.5L1126.8,236.6C1123.12,250.914 1109.76,260.749 1095,260" style="fill:rgb(211,223,68);fill-rule:nonzero;"/>
        <path d="M1145.9,208.9L1160.9,193.9L1168.2,201.2L1131.6,237.8L1124.3,230.5L1138.6,216.2L1101.7,179.4L1109,172.1L1145.9,208.9Z" style="fill:rgb(211,223,68);fill-rule:nonzero;"/>
        <path d="M934.6,251.5L934.6,261.8C934.087,261.762 933.572,261.743 933.057,261.743C921.592,261.743 912.157,271.178 912.157,282.643C912.157,294.108 921.592,303.543 933.057,303.543C944.522,303.543 953.957,294.108 953.957,282.643C953.957,282.128 953.938,281.613 953.9,281.1L964.2,281.1C964.232,281.674 964.248,282.249 964.248,282.825C964.248,299.94 950.164,314.025 933.048,314.025C917.69,314.025 904.501,302.685 902.2,287.5L908.8,280.9L902.8,274.8C906.476,260.486 919.841,250.651 934.6,251.4" style="fill:rgb(0,138,177);fill-rule:nonzero;"/>
        <path d="M883.7,302.4L868.7,317.4L861.4,310.1L897.9,273.6L905.2,280.9L891,295.1L927.9,332L920.6,339.3L883.7,302.4Z" style="fill:rgb(0,138,177);fill-rule:nonzero;"/>
        <path d="M956.6,321.1L956.6,310.7C957.113,310.738 957.628,310.757 958.143,310.757C969.608,310.757 979.043,301.322 979.043,289.857C979.043,278.392 969.608,268.957 958.143,268.957C946.678,268.957 937.243,278.392 937.243,289.857C937.243,290.372 937.262,290.887 937.3,291.4L926.9,291.4C926.868,290.826 926.852,290.251 926.852,289.675C926.852,272.56 940.936,258.475 958.052,258.475C973.41,258.475 986.599,269.815 988.9,285L982.3,291.6L988.3,297.7C984.624,312.014 971.259,321.849 956.5,321.1" style="fill:rgb(0,105,140);fill-rule:nonzero;"/>
        <path d="M1007.4,270.1L1022.4,255.1L1029.7,262.4L993.2,298.9L985.9,291.6L1000.1,277.4L963.3,240.5L970.6,233.2L1007.4,270.1Z" style="fill:rgb(0,105,140);fill-rule:nonzero;"/>
        <path d="M869,331.2L884,316.3L891.3,323.6L854.7,360.1L847.4,352.8L861.7,338.6L824.8,301.7L832.1,294.4L869,331.2Z" style="fill:rgb(124,204,189);fill-rule:nonzero;"/>
        <path d="M1321.1,154.6L1321.1,164.9C1320.59,164.862 1320.07,164.843 1319.56,164.843C1308.09,164.843 1298.66,174.278 1298.66,185.743C1298.66,197.208 1308.09,206.643 1319.56,206.643C1331.02,206.643 1340.46,197.208 1340.46,185.743C1340.46,185.228 1340.44,184.713 1340.4,184.2L1350.7,184.2C1350.73,184.774 1350.75,185.349 1350.75,185.925C1350.75,203.04 1336.66,217.125 1319.55,217.125C1304.19,217.125 1291,205.785 1288.7,190.6L1295.3,184L1289.3,177.9C1292.98,163.586 1306.34,153.751 1321.1,154.5" style="fill:rgb(0,105,140);fill-rule:nonzero;"/>
        <path d="M1270.2,205.6L1255.2,220.6L1247.9,213.3L1284.4,176.7L1291.7,184L1277.5,198.3L1314.3,235.1L1307,242.4L1270.2,205.6Z" style="fill:rgb(0,105,140);fill-rule:nonzero;"/>
        <path d="M1343,224.2L1343,213.9C1343.51,213.938 1344.03,213.957 1344.54,213.957C1356.01,213.957 1365.44,204.522 1365.44,193.057C1365.44,181.592 1356.01,172.157 1344.54,172.157C1333.08,172.157 1323.64,181.592 1323.64,193.057C1323.64,193.572 1323.66,194.087 1323.7,194.6L1313.4,194.6C1313.37,194.026 1313.35,193.451 1313.35,192.875C1313.35,175.76 1327.44,161.675 1344.55,161.675C1359.91,161.675 1373.1,173.015 1375.4,188.2L1368.8,194.8L1374.8,200.9C1371.12,215.214 1357.76,225.049 1343,224.3" style="fill:rgb(223,100,32);fill-rule:nonzero;"/>
        <path d="M1393.9,173.3L1408.9,158.3L1416.2,165.6L1379.7,202.1L1372.4,194.8L1386.6,180.6L1349.7,143.7L1357.1,136.4L1393.9,173.3Z" style="fill:rgb(223,100,32);fill-rule:nonzero;"/>
        <path d="M1182.6,215.8L1182.6,226.1C1182.09,226.062 1181.57,226.043 1181.06,226.043C1169.59,226.043 1160.16,235.478 1160.16,246.943C1160.16,258.408 1169.59,267.843 1181.06,267.843C1192.52,267.843 1201.96,258.408 1201.96,246.943C1201.96,246.428 1201.94,245.913 1201.9,245.4L1212.2,245.4C1212.23,245.974 1212.25,246.549 1212.25,247.125C1212.25,264.24 1198.16,278.325 1181.05,278.325C1165.69,278.325 1152.5,266.985 1150.2,251.8L1156.8,245.2L1150.8,239.1C1154.48,224.786 1167.84,214.951 1182.6,215.7" style="fill:rgb(0,105,140);fill-rule:nonzero;"/>
        <path d="M1131.7,266.7L1116.7,281.7L1109.4,274.4L1146,237.9L1153.3,245.2L1139,259.4L1175.9,296.3L1168.6,303.6L1131.7,266.7Z" style="fill:rgb(0,105,140);fill-rule:nonzero;"/>
        <path d="M1204.6,285.4L1204.6,275.1C1205.11,275.138 1205.63,275.157 1206.14,275.157C1217.61,275.157 1227.04,265.722 1227.04,254.257C1227.04,242.792 1217.61,233.357 1206.14,233.357C1194.68,233.357 1185.24,242.792 1185.24,254.257C1185.24,254.772 1185.26,255.287 1185.3,255.8L1175,255.8C1174.97,255.226 1174.95,254.651 1174.95,254.075C1174.95,236.96 1189.04,222.875 1206.15,222.875C1221.51,222.875 1234.7,234.215 1237,249.4L1230.4,256L1236.4,262.1C1232.72,276.414 1219.36,286.249 1204.6,285.5" style="fill:rgb(124,204,189);fill-rule:nonzero;"/>
        <path d="M1255.5,234.4L1270.4,219.4L1277.8,226.7L1241.2,263.3L1233.9,256L1248.1,241.7L1211.3,204.9L1218.6,197.6L1255.5,234.4Z" style="fill:rgb(124,204,189);fill-rule:nonzero;"/>
        <path d="M1044.1,276.9L1044.1,287.2C1043.59,287.162 1043.07,287.143 1042.56,287.143C1031.09,287.143 1021.66,296.578 1021.66,308.043C1021.66,319.508 1031.09,328.943 1042.56,328.943C1054.02,328.943 1063.46,319.508 1063.46,308.043C1063.46,307.528 1063.44,307.013 1063.4,306.5L1073.7,306.5C1073.73,307.074 1073.75,307.649 1073.75,308.225C1073.75,325.34 1059.66,339.425 1042.55,339.425C1027.19,339.425 1014,328.085 1011.7,312.9L1018.3,306.3L1012.3,300.2C1015.98,285.886 1029.34,276.051 1044.1,276.8" style="fill:rgb(223,100,32);fill-rule:nonzero;"/>
        <path d="M993.3,327.9L978.3,342.9L971,335.6L1007.5,299.1L1014.8,306.4L1000.6,320.6L1037.4,357.5L1030.1,364.8L993.3,327.9Z" style="fill:rgb(223,100,32);fill-rule:nonzero;"/>
        <path d="M1066.1,346.5L1066.1,336.2C1066.61,336.238 1067.13,336.257 1067.64,336.257C1079.11,336.257 1088.54,326.822 1088.54,315.357C1088.54,303.892 1079.11,294.457 1067.64,294.457C1056.18,294.457 1046.74,303.892 1046.74,315.357C1046.74,315.872 1046.76,316.387 1046.8,316.9L1036.5,316.9C1036.47,316.326 1036.45,315.751 1036.45,315.175C1036.45,298.06 1050.54,283.975 1067.65,283.975C1083.01,283.975 1096.2,295.315 1098.5,310.5L1091.9,317.1L1097.9,323.2C1094.22,337.514 1080.86,347.349 1066.1,346.6" style="fill:rgb(124,204,189);fill-rule:nonzero;"/>
        <path d="M1117,295.6L1132,280.6L1139.3,287.9L1102.8,324.4L1095.4,317.1L1109.7,302.9L1072.8,266L1080.1,258.7L1117,295.6Z" style="fill:rgb(124,204,189);fill-rule:nonzero;"/>
        <path d="M1430.6,180.1L1430.6,190.4C1430.09,190.362 1429.57,190.343 1429.06,190.343C1417.59,190.343 1408.16,199.778 1408.16,211.243C1408.16,222.708 1417.59,232.143 1429.06,232.143C1440.52,232.143 1449.96,222.708 1449.96,211.243C1449.96,210.728 1449.94,210.213 1449.9,209.7L1460.2,209.7C1460.23,210.274 1460.25,210.849 1460.25,211.425C1460.25,228.54 1446.16,242.625 1429.05,242.625C1413.69,242.625 1400.5,231.285 1398.2,216.1L1404.8,209.5L1398.8,203.4C1402.48,189.086 1415.84,179.251 1430.6,180" style="fill:rgb(0,105,140);fill-rule:nonzero;"/>
        <path d="M1379.8,231.1L1364.8,246.1L1357.5,238.8L1394,202.2L1401.3,209.5L1387.1,223.8L1423.9,260.6L1416.6,267.9L1379.8,231.1Z" style="fill:rgb(0,105,140);fill-rule:nonzero;"/>
        <path d="M1452.6,249.7L1452.6,239.4C1453.11,239.438 1453.63,239.457 1454.14,239.457C1465.61,239.457 1475.04,230.022 1475.04,218.557C1475.04,207.092 1465.61,197.657 1454.14,197.657C1442.68,197.657 1433.24,207.092 1433.24,218.557C1433.24,219.072 1433.26,219.587 1433.3,220.1L1423,220.1C1422.97,219.526 1422.95,218.951 1422.95,218.375C1422.95,201.26 1437.04,187.175 1454.15,187.175C1469.51,187.175 1482.7,198.515 1485,213.7L1478.4,220.3L1484.4,226.4C1480.72,240.714 1467.36,250.549 1452.6,249.8" style="fill:rgb(124,204,189);fill-rule:nonzero;"/>
        <path d="M1503.5,198.7L1518.5,183.7L1525.8,191L1489.2,227.6L1481.9,220.3L1496.2,206L1459.3,169.2L1466.6,161.9L1503.5,198.7Z" style="fill:rgb(124,204,189);fill-rule:nonzero;"/>
        <path d="M1292.2,241.3L1292.2,251.6C1291.69,251.562 1291.17,251.543 1290.66,251.543C1279.19,251.543 1269.76,260.978 1269.76,272.443C1269.76,283.908 1279.19,293.343 1290.66,293.343C1302.12,293.343 1311.56,283.908 1311.56,272.443C1311.56,271.928 1311.54,271.413 1311.5,270.9L1321.8,270.9C1321.83,271.474 1321.85,272.049 1321.85,272.625C1321.85,289.74 1307.76,303.825 1290.65,303.825C1275.29,303.825 1262.1,292.485 1259.8,277.3L1266.4,270.7L1260.4,264.6C1264.08,250.286 1277.44,240.451 1292.2,241.2" style="fill:rgb(0,138,177);fill-rule:nonzero;"/>
        <path d="M1241.3,292.2L1226.3,307.2L1219,299.9L1255.5,263.4L1262.9,270.7L1248.6,284.9L1285.5,321.8L1278.2,329.1L1241.3,292.2Z" style="fill:rgb(0,138,177);fill-rule:nonzero;"/>
        <path d="M1314.2,310.9L1314.2,300.5C1314.71,300.538 1315.23,300.557 1315.74,300.557C1327.21,300.557 1336.64,291.122 1336.64,279.657C1336.64,268.192 1327.21,258.757 1315.74,258.757C1304.28,258.757 1294.84,268.192 1294.84,279.657C1294.84,280.172 1294.86,280.687 1294.9,281.2L1284.6,281.2C1284.57,280.626 1284.55,280.051 1284.55,279.475C1284.55,262.36 1298.64,248.275 1315.75,248.275C1331.11,248.275 1344.3,259.615 1346.6,274.8L1340,281.4L1346,287.5C1342.32,301.814 1328.96,311.649 1314.2,310.9" style="fill:rgb(0,105,140);fill-rule:nonzero;"/>
        <path d="M1365,259.9L1380,244.9L1387.3,252.2L1350.8,288.7L1343.5,281.4L1357.7,267.2L1320.9,230.3L1328.2,223L1365,259.9Z" style="fill:rgb(0,105,140);fill-rule:nonzero;"/>
        <path d="M1226.6,321.1L1241.6,306.1L1248.9,313.4L1212.3,349.9L1205,342.6L1219.3,328.4L1182.4,291.5L1189.7,284.2L1226.6,321.1Z" style="fill:rgb(0,105,140);fill-rule:nonzero;"/>
        <path d="M1678.7,144.4L1678.7,154.7C1678.19,154.662 1677.67,154.643 1677.16,154.643C1665.69,154.643 1656.26,164.078 1656.26,175.543C1656.26,187.008 1665.69,196.443 1677.16,196.443C1688.62,196.443 1698.06,187.008 1698.06,175.543C1698.06,175.028 1698.04,174.513 1698,174L1708.3,174C1708.33,174.574 1708.35,175.149 1708.35,175.725C1708.35,192.84 1694.26,206.925 1677.15,206.925C1661.79,206.925 1648.6,195.585 1646.3,180.4L1652.9,173.8L1646.9,167.7C1650.58,153.386 1663.94,143.551 1678.7,144.3" style="fill:rgb(0,105,140);fill-rule:nonzero;"/>
        <path d="M1627.8,195.4L1612.8,210.4L1605.5,203.1L1642,166.5L1649.3,173.8L1635.1,188.1L1672,224.9L1664.7,232.2L1627.8,195.4Z" style="fill:rgb(0,105,140);fill-rule:nonzero;"/>
        <path d="M1700.6,214L1700.6,203.7C1701.11,203.738 1701.63,203.757 1702.14,203.757C1713.61,203.757 1723.04,194.322 1723.04,182.857C1723.04,171.392 1713.61,161.957 1702.14,161.957C1690.68,161.957 1681.24,171.392 1681.24,182.857C1681.24,183.372 1681.26,183.887 1681.3,184.4L1671,184.4C1670.97,183.826 1670.95,183.251 1670.95,182.675C1670.95,165.56 1685.04,151.475 1702.15,151.475C1717.51,151.475 1730.7,162.815 1733,178L1726.4,184.6L1732.4,190.7C1728.72,205.014 1715.36,214.849 1700.6,214.1" style="fill:rgb(124,204,189);fill-rule:nonzero;"/>
        <path d="M1751.5,163.1L1766.5,148.1L1773.8,155.4L1737.3,191.9L1730,184.6L1744.2,170.4L1707.4,133.5L1714.7,126.2L1751.5,163.1Z" style="fill:rgb(124,204,189);fill-rule:nonzero;"/>
        <path d="M1540.2,205.6L1540.2,215.9C1539.69,215.862 1539.17,215.843 1538.66,215.843C1527.19,215.843 1517.76,225.278 1517.76,236.743C1517.76,248.208 1527.19,257.643 1538.66,257.643C1550.12,257.643 1559.56,248.208 1559.56,236.743C1559.56,236.228 1559.54,235.713 1559.5,235.2L1569.8,235.2C1569.83,235.774 1569.85,236.349 1569.85,236.925C1569.85,254.04 1555.76,268.125 1538.65,268.125C1523.29,268.125 1510.1,256.785 1507.8,241.6L1514.4,235L1508.4,228.9C1512.08,214.586 1525.44,204.751 1540.2,205.5" style="fill:rgb(0,105,140);fill-rule:nonzero;"/>
        <path d="M1489.3,256.6L1474.3,271.6L1467,264.2L1503.6,227.7L1510.9,235L1496.6,249.2L1533.5,286.1L1526.2,293.4L1489.3,256.6Z" style="fill:rgb(0,105,140);fill-rule:nonzero;"/>
        <path d="M1562.2,275.2L1562.2,264.9C1562.71,264.938 1563.23,264.957 1563.74,264.957C1575.21,264.957 1584.64,255.522 1584.64,244.057C1584.64,232.592 1575.21,223.157 1563.74,223.157C1552.28,223.157 1542.84,232.592 1542.84,244.057C1542.84,244.572 1542.86,245.087 1542.9,245.6L1532.6,245.6C1532.57,245.026 1532.55,244.451 1532.55,243.875C1532.55,226.76 1546.64,212.675 1563.75,212.675C1579.11,212.675 1592.3,224.015 1594.6,239.2L1588,245.8L1594,251.9C1590.32,266.214 1576.96,276.049 1562.2,275.3" style="fill:rgb(0,138,177);fill-rule:nonzero;"/>
        <path d="M1613.1,224.2L1628.1,209.2L1635.4,216.5L1598.8,253.1L1591.5,245.8L1605.8,231.5L1568.9,194.7L1576.2,187.4L1613.1,224.2Z" style="fill:rgb(0,138,177);fill-rule:nonzero;"/>
        <path d="M1401.8,266.7L1401.8,277C1401.29,276.962 1400.77,276.943 1400.26,276.943C1388.79,276.943 1379.36,286.378 1379.36,297.843C1379.36,309.308 1388.79,318.743 1400.26,318.743C1411.72,318.743 1421.16,309.308 1421.16,297.843C1421.16,297.328 1421.14,296.813 1421.1,296.3L1431.4,296.3C1431.43,296.874 1431.45,297.449 1431.45,298.025C1431.45,315.14 1417.36,329.225 1400.25,329.225C1384.89,329.225 1371.7,317.885 1369.4,302.7L1376,296.1L1370,290C1373.68,275.686 1387.04,265.851 1401.8,266.6" style="fill:rgb(211,223,68);fill-rule:nonzero;"/>
        <path d="M1350.9,317.7L1335.9,332.7L1328.6,325.4L1365.1,288.9L1372.4,296.2L1358.2,310.4L1395,347.3L1387.7,354.6L1350.9,317.7Z" style="fill:rgb(211,223,68);fill-rule:nonzero;"/>
        <path d="M1423.7,336.4L1423.7,326C1424.21,326.038 1424.73,326.057 1425.24,326.057C1436.71,326.057 1446.14,316.622 1446.14,305.157C1446.14,293.692 1436.71,284.257 1425.24,284.257C1413.78,284.257 1404.34,293.692 1404.34,305.157C1404.34,305.672 1404.36,306.187 1404.4,306.7L1394.1,306.7C1394.07,306.126 1394.05,305.551 1394.05,304.975C1394.05,287.86 1408.14,273.775 1425.25,273.775C1440.61,273.775 1453.8,285.115 1456.1,300.3L1449.5,306.9L1455.5,313C1451.82,327.314 1438.46,337.149 1423.7,336.4" style="fill:rgb(124,204,189);fill-rule:nonzero;"/>
        <path d="M1474.6,285.4L1489.6,270.4L1496.9,277.7L1460.4,314.2L1453.1,306.9L1467.3,292.7L1430.4,255.8L1437.8,248.5L1474.6,285.4Z" style="fill:rgb(124,204,189);fill-rule:nonzero;"/>
        <path d="M1788.2,169.9L1788.2,180.2C1787.69,180.162 1787.17,180.143 1786.66,180.143C1775.19,180.143 1765.76,189.578 1765.76,201.043C1765.76,212.508 1775.19,221.943 1786.66,221.943C1798.12,221.943 1807.56,212.508 1807.56,201.043C1807.56,200.528 1807.54,200.013 1807.5,199.5L1817.8,199.5C1817.83,200.074 1817.85,200.649 1817.85,201.225C1817.85,218.34 1803.76,232.425 1786.65,232.425C1771.29,232.425 1758.1,221.085 1755.8,205.9L1762.4,199.3L1756.4,193.2C1760.08,178.886 1773.44,169.051 1788.2,169.8" style="fill:rgb(0,105,140);fill-rule:nonzero;"/>
        <path d="M1737.4,220.9L1722.4,235.9L1715.1,228.6L1751.6,192L1758.9,199.3L1744.7,213.6L1781.5,250.4L1774.2,257.7L1737.4,220.9Z" style="fill:rgb(0,105,140);fill-rule:nonzero;"/>
        <path d="M1810.2,239.5L1810.2,229.2C1810.71,229.238 1811.23,229.257 1811.74,229.257C1823.21,229.257 1832.64,219.822 1832.64,208.357C1832.64,196.892 1823.21,187.457 1811.74,187.457C1800.28,187.457 1790.84,196.892 1790.84,208.357C1790.84,208.872 1790.86,209.387 1790.9,209.9L1780.6,209.9C1780.57,209.326 1780.55,208.751 1780.55,208.175C1780.55,191.06 1794.64,176.975 1811.75,176.975C1827.11,176.975 1840.3,188.315 1842.6,203.5L1836,210.1L1842,216.2C1838.32,230.514 1824.96,240.349 1810.2,239.6" style="fill:rgb(211,223,68);fill-rule:nonzero;"/>
        <path d="M1861.1,188.5L1876.1,173.5L1883.4,180.9L1846.9,217.4L1839.5,210.1L1853.8,195.8L1816.9,159L1824.2,151.7L1861.1,188.5Z" style="fill:rgb(211,223,68);fill-rule:nonzero;"/>
        <path d="M1649.8,231.1L1649.8,241.4C1649.29,241.362 1648.77,241.343 1648.26,241.343C1636.79,241.343 1627.36,250.778 1627.36,262.243C1627.36,273.708 1636.79,283.143 1648.26,283.143C1659.72,283.143 1669.16,273.708 1669.16,262.243C1669.16,261.728 1669.14,261.213 1669.1,260.7L1679.4,260.7C1679.43,261.274 1679.45,261.849 1679.45,262.425C1679.45,279.54 1665.36,293.625 1648.25,293.625C1632.89,293.625 1619.7,282.285 1617.4,267.1L1624,260.5L1618,254.4C1621.68,240.086 1635.04,230.251 1649.8,231" style="fill:rgb(223,100,32);fill-rule:nonzero;"/>
        <path d="M1598.9,282L1583.9,297L1576.6,289.7L1613.2,253.2L1620.5,260.5L1606.2,274.7L1643.1,311.6L1635.8,318.9L1598.9,282Z" style="fill:rgb(223,100,32);fill-rule:nonzero;"/>
        <path d="M1671.8,300.7L1671.8,290.4C1672.31,290.438 1672.83,290.457 1673.34,290.457C1684.81,290.457 1694.24,281.022 1694.24,269.557C1694.24,258.092 1684.81,248.657 1673.34,248.657C1661.88,248.657 1652.44,258.092 1652.44,269.557C1652.44,270.072 1652.46,270.587 1652.5,271.1L1642.2,271.1C1642.17,270.526 1642.15,269.951 1642.15,269.375C1642.15,252.26 1656.24,238.175 1673.35,238.175C1688.71,238.175 1701.9,249.515 1704.2,264.7L1697.6,271.3L1703.6,277.4C1699.92,291.714 1686.56,301.549 1671.8,300.8" style="fill:rgb(0,105,140);fill-rule:nonzero;"/>
        <path d="M1722.6,249.7L1737.6,234.7L1744.9,242L1708.4,278.6L1701.1,271.2L1715.3,257L1678.5,220.2L1685.8,212.9L1722.6,249.7Z" style="fill:rgb(0,105,140);fill-rule:nonzero;"/>
        <path d="M1511.3,292.2L1511.3,302.5C1510.79,302.462 1510.27,302.443 1509.76,302.443C1498.29,302.443 1488.86,311.878 1488.86,323.343C1488.86,334.808 1498.29,344.243 1509.76,344.243C1521.22,344.243 1530.66,334.808 1530.66,323.343C1530.66,322.828 1530.64,322.313 1530.6,321.8L1541,321.8C1541.03,322.374 1541.05,322.949 1541.05,323.525C1541.05,340.64 1526.96,354.725 1509.85,354.725C1494.49,354.725 1481.3,343.385 1479,328.2L1485.6,321.6L1479.6,315.5C1483.28,301.186 1496.64,291.351 1511.4,292.1" style="fill:rgb(0,105,140);fill-rule:nonzero;"/>
        <path d="M1533.3,361.8L1533.3,351.5C1533.81,351.538 1534.33,351.557 1534.84,351.557C1546.31,351.557 1555.74,342.122 1555.74,330.657C1555.74,319.192 1546.31,309.757 1534.84,309.757C1523.38,309.757 1513.94,319.192 1513.94,330.657C1513.94,331.172 1513.96,331.687 1514,332.2L1503.7,332.2C1503.67,331.626 1503.65,331.051 1503.65,330.475C1503.65,313.36 1517.74,299.275 1534.85,299.275C1550.21,299.275 1563.4,310.615 1565.7,325.8L1559.1,332.4L1565.1,338.5C1561.42,352.814 1548.06,362.649 1533.3,361.9" style="fill:rgb(124,204,189);fill-rule:nonzero;"/>
        <path d="M1584.2,310.9L1599.2,295.9L1606.5,303.2L1569.9,339.7L1562.6,332.4L1576.9,318.2L1540,281.3L1547.3,274L1584.2,310.9Z" style="fill:rgb(124,204,189);fill-rule:nonzero;"/>
        <path d="M1897.8,195.4L1897.8,205.7C1897.29,205.662 1896.77,205.643 1896.26,205.643C1884.79,205.643 1875.36,215.078 1875.36,226.543C1875.36,238.008 1884.79,247.443 1896.26,247.443C1907.72,247.443 1917.16,238.008 1917.16,226.543C1917.16,226.028 1917.14,225.513 1917.1,225L1927.4,225C1927.43,225.574 1927.45,226.149 1927.45,226.725C1927.45,243.84 1913.36,257.925 1896.25,257.925C1880.89,257.925 1867.7,246.585 1865.4,231.4L1872,224.8L1866,218.7C1869.68,204.386 1883.04,194.551 1897.8,195.3" style="fill:rgb(0,105,140);fill-rule:nonzero;"/>
        <path d="M1847,246.4L1832,261.4L1824.6,254.1L1861.2,217.5L1868.5,224.8L1854.3,239.1L1891.1,275.9L1883.8,283.2L1847,246.4Z" style="fill:rgb(0,105,140);fill-rule:nonzero;"/>
        <path d="M1919.8,265L1919.8,254.7C1920.31,254.738 1920.83,254.757 1921.34,254.757C1932.81,254.757 1942.24,245.322 1942.24,233.857C1942.24,222.392 1932.81,212.957 1921.34,212.957C1909.88,212.957 1900.44,222.392 1900.44,233.857C1900.44,234.372 1900.46,234.887 1900.5,235.4L1890.2,235.4C1890.17,234.826 1890.15,234.251 1890.15,233.675C1890.15,216.56 1904.24,202.475 1921.35,202.475C1936.71,202.475 1949.9,213.815 1952.2,229L1945.6,235.6L1951.6,241.7C1947.92,256.014 1934.56,265.849 1919.8,265.1" style="fill:rgb(124,204,189);fill-rule:nonzero;"/>
        <path d="M1759.4,256.5L1759.4,266.8C1758.89,266.762 1758.37,266.743 1757.86,266.743C1746.39,266.743 1736.96,276.178 1736.96,287.643C1736.96,299.108 1746.39,308.543 1757.86,308.543C1769.32,308.543 1778.76,299.108 1778.76,287.643C1778.76,287.128 1778.74,286.613 1778.7,286.1L1789,286.1C1789.03,286.674 1789.05,287.249 1789.05,287.825C1789.05,304.94 1774.96,319.025 1757.85,319.025C1742.49,319.025 1729.3,307.685 1727,292.5L1733.6,285.9L1727.6,279.8C1731.28,265.486 1744.64,255.651 1759.4,256.4" style="fill:rgb(124,204,189);fill-rule:nonzero;"/>
        <path d="M1708.5,307.5L1693.5,322.5L1686.2,315.2L1722.7,278.7L1730,286L1715.8,300.2L1752.7,337.1L1745.3,344.4L1708.5,307.5Z" style="fill:rgb(124,204,189);fill-rule:nonzero;"/>
        <path d="M1781.3,326.2L1781.3,315.8C1781.81,315.838 1782.33,315.857 1782.84,315.857C1794.31,315.857 1803.74,306.422 1803.74,294.957C1803.74,283.492 1794.31,274.057 1782.84,274.057C1771.38,274.057 1761.94,283.492 1761.94,294.957C1761.94,295.472 1761.96,295.987 1762,296.5L1751.7,296.5C1751.67,295.926 1751.65,295.351 1751.65,294.775C1751.65,277.66 1765.74,263.575 1782.85,263.575C1798.21,263.575 1811.4,274.915 1813.7,290.1L1807.1,296.7L1813.1,302.8C1809.42,317.114 1796.06,326.949 1781.3,326.2" style="fill:rgb(223,100,32);fill-rule:nonzero;"/>
        <path d="M1832.2,275.2L1847.2,260.2L1854.5,267.5L1818,304L1810.7,296.7L1824.9,282.5L1788.1,245.6L1795.4,238.3L1832.2,275.2Z" style="fill:rgb(223,100,32);fill-rule:nonzero;"/>
        <path d="M1693.8,336.3L1708.8,321.3L1716.1,328.7L1679.5,365.2L1672.2,357.9L1686.4,343.6L1649.6,306.8L1656.9,299.5L1693.8,336.3Z" style="fill:rgb(211,223,68);fill-rule:nonzero;"/>
        <path d="M1868.9,282L1868.9,292.3C1868.39,292.262 1867.87,292.243 1867.36,292.243C1855.89,292.243 1846.46,301.678 1846.46,313.143C1846.46,324.608 1855.89,334.043 1867.36,334.043C1878.82,334.043 1888.26,324.608 1888.26,313.143C1888.26,312.628 1888.24,312.113 1888.2,311.6L1898.5,311.6C1898.53,312.174 1898.55,312.749 1898.55,313.325C1898.55,330.44 1884.46,344.525 1867.35,344.525C1851.99,344.525 1838.8,333.185 1836.5,318L1843.1,311.4L1837.1,305.3C1840.78,290.986 1854.14,281.151 1868.9,281.9" style="fill:rgb(0,105,140);fill-rule:nonzero;"/>
        <path d="M1890.9,351.6L1890.9,341.3C1891.41,341.338 1891.93,341.357 1892.44,341.357C1903.91,341.357 1913.34,331.922 1913.34,320.457C1913.34,308.992 1903.91,299.557 1892.44,299.557C1880.98,299.557 1871.54,308.992 1871.54,320.457C1871.54,320.972 1871.56,321.487 1871.6,322L1861.3,322C1861.27,321.426 1861.25,320.851 1861.25,320.275C1861.25,303.16 1875.34,289.075 1892.45,289.075C1907.81,289.075 1921,300.415 1923.3,315.6L1916.7,322.2L1922.7,328.3C1919.02,342.614 1905.66,352.449 1890.9,351.7" style="fill:rgb(0,138,177);fill-rule:nonzero;"/>
        <path d="M1941.8,300.7L1956.8,285.7L1964.1,293L1927.5,329.5L1920.2,322.2L1934.5,308L1897.6,271.1L1904.9,263.8L1941.8,300.7Z" style="fill:rgb(0,138,177);fill-rule:nonzero;"/>
    </g>
</svg>
