<?xml version="1.0" encoding="UTF-8" standalone="no"?>
<!DOCTYPE svg PUBLIC "-//W3C//DTD SVG 1.1//EN" "http://www.w3.org/Graphics/SVG/1.1/DTD/svg11.dtd">
<svg width="100%" height="100%" viewBox="0 0 451 51" version="1.1" xmlns="http://www.w3.org/2000/svg" xmlns:xlink="http://www.w3.org/1999/xlink" xml:space="preserve" xmlns:serif="http://www.serif.com/" style="fill-rule:evenodd;clip-rule:evenodd;stroke-linejoin:round;stroke-miterlimit:2;">
    <g transform="matrix(1,0,0,1,-105.937,-102.898)">
        <g transform="matrix(4.83555,0,0,4.83555,-484.967,97.0952)">
            <path d="M137.9,1.2L143.1,1.2L143.1,11.6L137.9,11.6L137.9,1.2ZM128.9,6.4L128.6,6.5C128.6,6.5 130.4,8 130.4,8.1C130.5,8.2 130.6,8.2 130.5,8.5C130.4,8.8 130.3,9.1 130.3,9.1C130.3,9.1 131.9,8.8 132.1,8.7C132.3,8.7 132.4,8.7 132.4,8.9C132.4,9.1 132.3,10.8 132.3,10.8L132.8,10.8C132.8,10.8 132.7,9 132.7,8.9C132.7,8.7 132.8,8.7 133,8.7C133.2,8.7 134.8,9.1 134.8,9.1C134.8,9.1 134.7,8.7 134.6,8.5C134.5,8.2 134.6,8.2 134.7,8.1C134.8,8 136.5,6.5 136.5,6.5L136.2,6.4C136,6.3 136.1,6.2 136.1,6.1C136.1,6 136.4,5 136.4,5C136.4,5 135.6,5.2 135.5,5.2C135.4,5.2 135.3,5.2 135.3,5.1C135.3,5 135.1,4.6 135.1,4.6C135.1,4.6 134.2,5.6 134.1,5.7C133.9,5.9 133.7,5.7 133.8,5.5C133.8,5.3 134.3,3.2 134.3,3.2C134.3,3.2 133.8,3.5 133.6,3.6C133.4,3.7 133.3,3.7 133.3,3.5C133.2,3.3 132.6,2.2 132.6,2.1C132.6,2.1 132,3.3 131.9,3.5C131.8,3.7 131.7,3.7 131.6,3.6C131.4,3.5 130.9,3.2 130.9,3.2C130.9,3.2 131.4,5.3 131.4,5.5C131.4,5.7 131.3,5.8 131.1,5.7L130.1,4.6C130.1,4.6 130,4.9 129.9,5C129.9,5.1 129.8,5.2 129.7,5.1C129.5,5.1 128.7,4.9 128.7,4.9C128.7,4.9 129,5.9 129.1,6C129.1,6.1 129.1,6.3 128.9,6.4ZM122.2,1.2L127.4,1.2L127.4,11.6L122.2,11.6L122.2,1.2Z" style="fill:rgb(255,0,0);fill-rule:nonzero;"/>
        </g>
        <g>
            <g transform="matrix(0.975596,0,0,0.975596,6.12467,3.17187)">
                <text x="250.486px" y="123.761px" style="font-family:'Helvetica';font-size:29.787px;">Transport</text>
            </g>
            <g transform="matrix(0.975596,0,0,0.975596,6.12467,32.2345)">
                <text x="250.486px" y="123.761px" style="font-family:'Helvetica';font-size:29.787px;">Canada</text>
            </g>
        </g>
        <g transform="matrix(1,0,0,1,167.688,0)">
            <g transform="matrix(0.975596,0,0,0.975596,6.12467,3.17187)">
                <text x="250.486px" y="123.761px" style="font-family:'Helvetica';font-size:29.787px;">Transports</text>
            </g>
            <g transform="matrix(0.975596,0,0,0.975596,6.12467,32.2345)">
                <text x="250.486px" y="123.761px" style="font-family:'Helvetica';font-size:29.787px;">Canada</text>
            </g>
        </g>
    </g>
</svg>
