<?xml version="1.0" encoding="UTF-8" standalone="no"?>
<!DOCTYPE svg PUBLIC "-//W3C//DTD SVG 1.1//EN" "http://www.w3.org/Graphics/SVG/1.1/DTD/svg11.dtd">
<svg width="100%" height="100%" viewBox="0 0 300 100" version="1.1" xmlns="http://www.w3.org/2000/svg" xmlns:xlink="http://www.w3.org/1999/xlink" xml:space="preserve" xmlns:serif="http://www.serif.com/" style="fill-rule:evenodd;clip-rule:evenodd;stroke-linejoin:round;stroke-miterlimit:2;">
    <path d="M216,88.8C215.645,88.609 215.277,88.442 214.9,88.3C213.902,87.694 213.237,86.66 213.1,85.5C212.99,84.337 212.956,83.168 213,82L213,78.5L215,78.5L215,85.1C214.974,85.813 215.314,86.493 215.9,86.9C216.463,87.366 217.256,87.446 217.9,87.1C218.5,87.1 218.8,86.6 219.2,86.3C219.316,86.158 219.386,85.983 219.4,85.8C219.504,85.306 219.571,84.804 219.6,84.3L219.6,78.4L221.4,78.4L221.4,84.8C221.435,85.748 221.114,86.676 220.5,87.4C220.008,88.086 219.241,88.525 218.4,88.6L218.4,88.8L216,88.8Z" style="fill:white;fill-rule:nonzero;"/>
    <path d="M273.7,88.8C273.345,88.609 272.977,88.442 272.6,88.3C271.602,87.694 270.937,86.66 270.8,85.5C270.69,84.337 270.656,83.168 270.7,82L270.7,78.5L272.7,78.5L272.7,85.1C272.674,85.813 273.014,86.493 273.6,86.9C274.163,87.366 274.956,87.446 275.6,87.1C276.2,87.1 276.5,86.6 276.9,86.3C277.016,86.158 277.086,85.983 277.1,85.8C277.204,85.306 277.271,84.804 277.3,84.3L277.3,78.4L279,78.4L279,84.8C279.035,85.748 278.714,86.676 278.1,87.4C277.608,88.086 276.841,88.525 276,88.6L276,88.8L273.7,88.8Z" style="fill:white;fill-rule:nonzero;"/>
    <path d="M289.9,67C289.5,67.3 289.2,67.8 288.6,68.1C288.24,68.369 287.906,68.671 287.6,69C286.766,69.666 285.861,70.236 284.9,70.7C283.824,71.246 282.681,71.649 281.5,71.9C280.778,72.071 280.041,72.172 279.3,72.2L278,72.4C277.139,72.274 276.27,72.208 275.4,72.2C274.314,71.972 273.245,71.672 272.2,71.3L270.3,70.5C269.393,69.998 268.524,69.43 267.7,68.8C266.906,68.166 266.17,67.464 265.5,66.7C264.814,65.896 264.211,65.025 263.7,64.1C263.043,62.82 262.507,61.48 262.1,60.1C262.005,59.739 261.938,59.371 261.9,59L261.7,57.9C261.7,57.6 261.8,57.2 261.5,56.9C261.2,56.6 261.3,55.4 261.6,54.7C261.622,54.568 261.622,54.432 261.6,54.3C261.73,52.784 262.102,51.299 262.7,49.9C263.101,48.935 263.569,48 264.1,47.1L264.7,46.3L269.6,46.3L269.6,41.9L269.9,41.9C270.441,41.554 271.01,41.253 271.6,41C272.179,40.742 272.782,40.541 273.4,40.4L274.3,40.1C275.16,39.951 276.028,39.851 276.9,39.8C277.8,39.8 278.7,39.7 279.6,39.8C281.185,39.964 282.736,40.369 284.2,41L285.2,41.4C286.263,41.966 287.268,42.636 288.2,43.4L290.2,45.2L286.3,49L285.9,48.6C284.918,47.534 283.727,46.683 282.4,46.1C281.748,45.759 281.034,45.555 280.3,45.5C280,45.2 279.5,45.4 279.1,45.3C278.676,45.19 278.236,45.156 277.8,45.2L276.5,45.2L275.3,45.4L274.1,45.8C272.772,46.238 271.57,46.993 270.6,48L269.9,48.7C268.848,49.809 268.062,51.143 267.6,52.6C267.233,53.556 267.063,54.577 267.1,55.6L267.1,57.1C267.257,58.693 267.77,60.231 268.6,61.6C269.16,62.483 269.832,63.29 270.6,64C271.715,65.044 273.047,65.829 274.5,66.3C275.458,66.659 276.477,66.829 277.5,66.8L279,66.8C280.03,66.72 281.041,66.484 282,66.1C282.626,65.855 283.228,65.554 283.8,65.2L284.3,64.8C284.7,64.6 284.9,64.3 285.2,64.1C285.506,63.953 285.753,63.706 285.9,63.4L286.3,63.4L289.9,67Z" style="fill:white;fill-rule:nonzero;"/>
    <path d="M268.2,45L257.6,45L257.6,71.4C257.6,72.3 257.6,72.3 256.7,72.3L252.6,72.3C252.1,72.3 252,72.2 252,71.8L252,71.3L252,45L241,45L241,39.7L268.1,39.7L268.2,45Z" style="fill:white;fill-rule:nonzero;"/>
    <path d="M158.9,21.2L158.9,35.7L154.7,35.7C154.6,35 154.5,19.7 154.6,16.6L161,16.6L162,19.3C162.3,20.3 162.7,21.3 163.1,22.3C163.5,23.3 163.8,24.6 164.3,25.7C164.57,26.387 164.803,27.088 165,27.8L165.4,28.9C165.603,28.516 165.77,28.114 165.9,27.7C166.3,26.2 166.9,24.8 167.4,23.3C167.9,21.8 167.9,21.7 168.2,21C168.5,20.3 168.7,19.5 169,18.7C169.3,17.9 169.5,17.2 169.8,16.5L176.2,16.5L176.2,35.7L171.8,35.7L171.8,21.5L172,21.5L170.1,27.2C169.4,29.4 168.5,31.5 167.9,33.8C167.7,34.4 167.4,35 167.3,35.6C167.26,35.783 167.097,35.915 166.909,35.915C166.872,35.915 166.835,35.91 166.8,35.9L163.9,35.9C162.2,30.9 160.7,26 158.9,21.2Z" style="fill:white;fill-rule:nonzero;"/>
    <path d="M78.1,16.6L82.3,16.6L82.3,35.7L76.8,35.7L76,34.4L72.5,28.8L70.9,26.1L69.4,23.6L68.4,22L68.3,22L68.3,35.5L64.1,35.5L64.1,16.6L69.9,16.6L78.1,29.9L78.1,16.6Z" style="fill:white;fill-rule:nonzero;"/>
    <path d="M259.7,35.8L254.6,35.8C254.281,35.813 253.991,35.606 253.9,35.3L251.4,31.1L249.4,27.7C248.9,26.7 248.2,25.8 247.6,24.9L246.4,23L245.8,22L245.8,35.7L241.6,35.7L241.6,16.6L247.4,16.6L255.5,30L255.5,16.6L259.7,16.6L259.7,35.8Z" style="fill:white;fill-rule:nonzero;"/>
    <path d="M114.5,26.2L114.5,25.2C114.547,23.919 114.853,22.66 115.4,21.5C115.972,20.253 116.829,19.157 117.9,18.3C119.085,17.332 120.495,16.679 122,16.4C122.4,16.1 122.9,16.3 123.4,16.2C123.827,16.109 124.264,16.075 124.7,16.1L126.2,16.1C127.114,16.232 128.016,16.433 128.9,16.7C129.943,17.082 130.92,17.622 131.8,18.3C132.503,18.904 133.111,19.612 133.6,20.4C134.151,21.393 134.62,22.43 135,23.5C135.38,24.57 135,23.6 135,23.6C135.168,24.994 135.202,26.4 135.1,27.8C135.063,28.343 134.963,28.88 134.8,29.4C134.6,29.9 134.5,30.4 134.2,30.9L133.4,32.3C132.47,33.625 131.188,34.664 129.7,35.3C129.033,35.705 128.279,35.945 127.5,36C126.235,36.372 124.907,36.475 123.6,36.3C122.854,36.252 122.115,36.118 121.4,35.9L119.3,35C118.154,34.401 117.161,33.545 116.4,32.5C115.76,31.649 115.254,30.705 114.9,29.7C114.8,29.3 114.7,28.9 114.6,28.5C114.479,27.74 114.446,26.968 114.5,26.2ZM118.9,26.2C118.886,26.735 118.919,27.271 119,27.8C119.174,28.675 119.551,29.497 120.1,30.2C121.168,31.534 122.791,32.309 124.5,32.3L126.1,32.3C128.594,31.894 130.503,29.819 130.7,27.3C130.862,26.192 130.759,25.061 130.4,24C129.73,21.637 127.556,19.996 125.1,20L123.5,20L122.3,20.4C120.767,21.056 119.621,22.387 119.2,24C118.943,24.703 118.84,25.454 118.9,26.2Z" style="fill:white;fill-rule:nonzero;"/>
    <path d="M218.6,26.1L218.6,25.2C218.631,23.884 218.937,22.59 219.5,21.4C220.068,20.206 220.887,19.149 221.9,18.3C222.899,17.474 224.056,16.862 225.3,16.5L227,16.1C227.863,16 228.732,15.966 229.6,16C229.903,15.946 230.216,15.981 230.5,16.1C230.8,16.2 231.1,16 231.4,16.3C232.435,16.385 233.432,16.729 234.3,17.3C235.596,17.979 236.697,18.977 237.5,20.2C238.1,21.203 238.571,22.278 238.9,23.4C239.042,23.887 239.11,24.393 239.1,24.9L239.1,27.3C239.045,28.441 238.774,29.561 238.3,30.6C237.738,31.881 236.881,33.012 235.8,33.9C235.127,34.428 234.387,34.866 233.6,35.2C232.923,35.567 232.17,35.772 231.4,35.8C231.1,36.2 230.6,35.9 230.1,36.1C229.671,36.189 229.229,36.189 228.8,36.1C228.335,36.163 227.865,36.163 227.4,36.1C226.66,36.007 225.926,35.873 225.2,35.7L223.3,34.9C222.674,34.634 222.099,34.262 221.6,33.8C221.088,33.344 220.619,32.842 220.2,32.3C219.555,31.452 219.049,30.507 218.7,29.5C218.581,29.207 218.48,28.906 218.4,28.6C218.308,28.205 218.241,27.804 218.2,27.4C218.6,27 218.6,26.6 218.6,26.1ZM223,26.2C222.983,26.735 223.016,27.271 223.1,27.8C223.325,28.726 223.771,29.584 224.4,30.3L225.6,31.3L226.6,31.8L228,32.1C228.905,32.187 229.818,32.12 230.7,31.9C231.825,31.55 232.83,30.892 233.6,30C234.284,29.1 234.7,28.026 234.8,26.9C234.915,26.067 234.881,25.221 234.7,24.4C234.461,23.369 233.981,22.41 233.3,21.6C232.789,21.055 232.178,20.613 231.5,20.3C230.932,20.035 230.323,19.867 229.7,19.8C228.83,19.657 227.938,19.726 227.1,20C225.275,20.483 223.831,21.889 223.3,23.7C223,24 223.2,24.4 223,24.8C222.885,25.293 222.885,25.807 223,26.3L223,26.2Z" style="fill:white;fill-rule:nonzero;"/>
    <path d="M26.6,16.6L35.3,16.6C36.338,16.62 37.36,16.859 38.3,17.3C39.66,17.871 40.666,19.063 41,20.5C41.137,20.85 41.205,21.224 41.2,21.6L41.2,22.9C41.241,24.358 40.614,25.758 39.5,26.7C38.843,27.305 37.992,27.659 37.1,27.7L39.4,31.5L40.5,33.4L42,35.7L36.9,35.7L34.9,32L33,28.3L32.8,28.1L30.8,28.1L30.8,35.7L26.6,35.7L26.6,16.6ZM30.8,20.2L30.8,24.6L33.6,24.6C34.14,24.617 34.68,24.549 35.2,24.4C36.2,24.1 36.9,23.5 36.8,22.5C36.811,22.3 36.811,22.1 36.8,21.9C36.73,21.476 36.519,21.088 36.2,20.8L35.4,20.3L34.3,20.1L30.8,20.2Z" style="fill:white;fill-rule:nonzero;"/>
    <path d="M153.1,35.7L147.8,35.7L145.3,31L144,28.5C143.957,28.263 143.749,28.088 143.508,28.088C143.472,28.088 143.435,28.092 143.4,28.1L141.7,28.1L141.7,35.7L137.5,35.7L137.5,16.6L145.1,16.6C146.43,16.614 147.748,16.85 149,17.3L149.8,17.8C150.895,18.381 151.694,19.399 152,20.6C152.084,20.759 152.152,20.927 152.2,21.1C152.212,21.3 152.212,21.5 152.2,21.7L152.2,22.9C152.241,24.358 151.614,25.758 150.5,26.7C149.852,27.334 149.003,27.724 148.1,27.8L151.1,32.8L152.7,35.5L153.1,35.7ZM141.7,24.5L144.9,24.5L146.3,24.3C147.178,24.071 147.796,23.272 147.796,22.364C147.796,22.065 147.729,21.77 147.6,21.5C147.5,21.2 147.5,20.8 147,20.8C146.553,20.355 145.928,20.134 145.3,20.2L141.7,20.2L141.7,24.5Z" style="fill:white;fill-rule:nonzero;"/>
    <path d="M54.5,16.6C55,17.7 55.5,18.7 55.9,19.7L57.3,22.9C57.8,23.9 58.1,25 58.7,26C58.952,26.443 59.153,26.912 59.3,27.4C59.5,27.9 59.8,28.3 59.9,28.9C60.16,29.552 60.46,30.186 60.8,30.8C61.2,31.9 61.8,32.9 62.2,34.1C62.434,34.682 62.701,35.249 63,35.8L58,35.8C57.7,35.2 57.5,34.4 57.1,33.8C56.7,33.2 56.6,32.4 56.3,31.8L48.9,31.8L47.3,35.8L42.6,35.8L43.3,34.3L44.6,31.4C45,30.5 45.4,29.7 45.7,28.8L46.5,26.9C46.7,26.3 47.1,25.7 47.3,25.1L48.8,21.6L49.9,19.1L50.8,17C50.888,16.749 51.134,16.585 51.4,16.6L54.5,16.6ZM50.2,28.1L54.9,28.1C54.3,26.3 53.5,24.7 52.9,22.9L52.5,22.2L50.2,28.1Z" style="fill:white;fill-rule:nonzero;"/>
    <path d="M182.5,35.7L177.8,35.7L178.5,34.2L179.7,31.3C180.001,30.682 180.268,30.047 180.5,29.4C180.735,28.786 181.002,28.186 181.3,27.6L182.4,25C182.9,23.7 183.5,22.5 184,21.2C184.5,19.9 184.6,19.9 184.9,19.3C185.162,18.746 185.396,18.178 185.6,17.6C185.7,17.4 185.9,17.2 185.9,17C185.9,16.8 186.2,16.6 186.5,16.6L189.6,16.6L191,19.8L192.7,23.6L195.9,31L197.6,34.8L197.9,35.7L193.1,35.7C192.6,34.3 192,33 191.5,31.7L184.1,31.7L182.5,35.7ZM187.7,22.2L185.4,28.1L190.1,28.1C189.5,26.3 188.7,24.7 188.1,22.9L187.7,22.2Z" style="fill:white;fill-rule:nonzero;"/>
    <path d="M289.7,35.7L284.9,35.7L283.2,31.7L275.8,31.7L274.2,35.7L269.5,35.7L270.2,34.2L271.5,31.3C271.9,30.4 272.3,29.6 272.6,28.7L273.4,26.8C273.6,26.2 274,25.6 274.2,25L275.7,21.5L276.8,19L277.7,16.9C277.788,16.649 278.034,16.485 278.3,16.5L281.4,16.5L282.8,19.7L284.5,23.5L285.6,26.1L286.4,28C286.6,28.6 287,29.2 287.2,29.8L288.4,32.5C288.8,33.4 289.2,34.4 289.6,35.3L289.7,35.7ZM277.1,28L281.7,28C281.722,27.901 281.722,27.799 281.7,27.7L279.6,22.4L279.4,22.1L277.1,28Z" style="fill:white;fill-rule:nonzero;"/>
    <path d="M84.1,33.8L87.1,30.5C87.613,31.112 88.264,31.592 89,31.9C90.328,32.61 91.945,32.533 93.2,31.7C93.574,31.509 93.808,31.12 93.8,30.7L93.8,30.1C93.755,29.695 93.536,29.33 93.2,29.1C92.368,28.475 91.414,28.032 90.4,27.8C89.474,27.541 88.571,27.207 87.7,26.8C87.093,26.5 86.522,26.131 86,25.7C85.605,25.341 85.297,24.896 85.1,24.4C84.84,23.871 84.703,23.29 84.7,22.7C84.713,22.534 84.713,22.366 84.7,22.2C84.634,21.14 84.915,20.087 85.5,19.2C85.782,18.644 86.194,18.164 86.7,17.8C87.104,17.46 87.54,17.159 88,16.9L90.2,16.2C91.127,16.067 92.066,16.033 93,16.1C93.683,16.129 94.358,16.264 95,16.5L97.1,17.4L97.8,18C97.419,18.602 96.947,19.142 96.4,19.6L95,21.2C94.128,20.338 92.922,19.899 91.7,20C90.958,20.01 90.244,20.295 89.7,20.8C89.335,21.084 89.12,21.522 89.12,21.984C89.12,22.532 89.42,23.037 89.9,23.3C90.548,23.71 91.257,24.014 92,24.2L94.1,24.9C95.047,25.179 95.908,25.695 96.6,26.4C97.065,26.78 97.44,27.258 97.7,27.8C97.883,28.139 97.986,28.515 98,28.9C98.018,29.177 98.086,29.448 98.2,29.7C98.247,29.897 98.247,30.103 98.2,30.3C98,30.9 98,31.5 97.8,32.1C97.65,32.555 97.449,32.991 97.2,33.4C96.374,34.478 95.267,35.309 94,35.8C92.579,36.245 91.085,36.415 89.6,36.3L88.5,36.1L86.5,35.5L84.8,34.4L84.1,33.8Z" style="fill:white;fill-rule:nonzero;"/>
    <path d="M104.8,20.4L104.8,24.3L112.7,24.3C112.8,25.6 112.7,26.9 112.7,28.2L104.7,28.2L104.7,35.7L100.5,35.7L100.5,16.6L113.3,16.6L113.3,20.4L104.8,20.4Z" style="fill:white;fill-rule:nonzero;"/>
    <path d="M15.5,20.3L10,20.3L10,16.6C10.7,16.5 21.8,16.4 25.2,16.5L25.2,20.2L19.7,20.2L19.7,35.7L15.5,35.7L15.5,20.3Z" style="fill:white;fill-rule:nonzero;"/>
    <path d="M210.6,16.6L210.6,20.3L205.1,20.3L205.1,35.7L200.9,35.7L200.9,20.3L195.4,20.3L195.4,16.6L210.6,16.6Z" style="fill:white;fill-rule:nonzero;"/>
    <rect x="212" y="16.6" width="4.2" height="19.1" style="fill:white;fill-rule:nonzero;"/>
    <path d="M231.7,78.4L234.4,78.4L234.4,88.4L232.8,88.4L232.8,80.2C232.487,80.881 232.22,81.583 232,82.3L230.4,86.3L229.7,88.4L228.4,88.4C227.8,87.1 227.4,85.7 226.9,84.3L225.4,80.3L225.3,80.3L225.3,88.3L223.5,88.3L223.5,78.3L225.9,78.3C226.2,78.3 226.3,78.4 226.4,78.7C226.5,79 226.9,79.7 227,80.2C227.1,80.7 227.7,82 228,83L228.9,85.3C230,83 230.8,80.6 231.7,78.4Z" style="fill:white;fill-rule:nonzero;"/>
    <path d="M266.4,86.8L269.3,86.8L269.3,88.4L263.2,88.4C262.145,88.416 261.107,88.139 260.2,87.6C259.122,86.952 258.334,85.913 258,84.7C257.9,83.77 257.866,82.835 257.9,81.9C258.11,81.209 258.449,80.564 258.9,80C259.365,79.489 259.905,79.051 260.5,78.7C261.265,78.271 262.123,78.03 263,78C263.894,77.964 264.784,78.135 265.6,78.5C266.626,78.989 267.467,79.796 268,80.8C268.345,81.373 268.518,82.032 268.5,82.7L268.5,83.4C268.469,84.568 267.872,85.651 266.9,86.3L266.4,86.8ZM263.2,86.8C263.937,86.875 264.67,86.618 265.2,86.1C265.965,85.576 266.446,84.726 266.5,83.8C266.489,83.595 266.523,83.39 266.6,83.2C266.7,83 266.5,82.8 266.5,82.5C266.377,81.219 265.515,80.123 264.3,79.7C263.781,79.547 263.241,79.48 262.7,79.5C262.08,79.491 261.477,79.704 261,80.1C260.014,80.853 259.483,82.065 259.6,83.3C259.6,83.5 259.7,83.7 259.8,84C259.867,84.513 260.075,84.998 260.4,85.4C261.011,86.337 262.084,86.873 263.2,86.8Z" style="fill:white;fill-rule:nonzero;"/>
    <path d="M203.5,88.4L201.7,88.4L201.7,78.4L204.1,78.4L209,85.8L209.1,85.8L209.1,78.5L210.8,78.5C210.9,79.1 210.9,86.5 210.8,88.5L208.5,88.5L203.5,80.8L203.5,88.4Z" style="fill:white;fill-rule:nonzero;"/>
    <path d="M184.6,84.1L187.2,88.4L185,88.4L182.6,84.2L181.3,84.2L181.3,88.3L179.5,88.3L179.5,78.4L184,78.4C184.989,78.423 185.913,78.904 186.5,79.7C186.684,79.975 186.819,80.279 186.9,80.6C187.098,81.704 186.721,82.836 185.9,83.6C185.497,83.836 185.058,84.005 184.6,84.1ZM181.4,82.6L183.6,82.6C184.015,82.574 184.407,82.396 184.7,82.1C185,81.8 184.9,81.5 184.9,81.1L184.9,80.7C184.598,80.215 184.071,79.914 183.5,79.9L181.3,79.9L181.4,82.6Z" style="fill:white;fill-rule:nonzero;"/>
    <path d="M250.5,84.1L253.1,88.4L250.9,88.4L248.7,84.5C248.615,84.304 248.413,84.182 248.2,84.2L247.3,84.2L247.3,88.4L245.5,88.4L245.5,78.4L249.8,78.4C250.785,78.438 251.703,78.915 252.3,79.7C252.506,79.962 252.644,80.271 252.7,80.6C252.926,81.656 252.584,82.757 251.8,83.5C251.426,83.809 250.978,84.016 250.5,84.1ZM250.9,80.8C250.628,80.396 250.185,80.138 249.7,80.1L247.4,80.1L247.4,81.4C247.374,81.833 247.374,82.267 247.4,82.7L249,82.7C249.701,82.789 250.396,82.48 250.8,81.9L250.9,80.8Z" style="fill:white;fill-rule:nonzero;"/>
    <path d="M177.4,84.1L172.7,84.1L172.7,86.8L177.9,86.8L177.9,88.4L171,88.4C170.9,87.8 170.8,80.8 170.9,78.4L177.5,78.4L177.5,80L172.7,80L172.7,82.4L177.4,82.4L177.4,84.1Z" style="fill:white;fill-rule:nonzero;"/>
    <path d="M195.7,88.4L188.8,88.4L188.8,78.4L195.4,78.4L195.4,80L190.6,80C190.567,80.399 190.567,80.801 190.6,81.2L190.6,82.4L195.3,82.4L195.3,84L190.7,84L190.7,86.8L195.8,86.8L195.7,88.4Z" style="fill:white;fill-rule:nonzero;"/>
    <path d="M243.5,78.4L243.5,80L238.7,80L238.7,82.4L243.3,82.4L243.3,84L238.6,84L238.6,86.7L243.8,86.7L243.8,88.3L236.8,88.3L236.8,78.3L243.5,78.4Z" style="fill:white;fill-rule:nonzero;"/>
    <path d="M282.9,82.4L287.6,82.4L287.6,84L282.9,84L282.9,86.7L288,86.7L288,88.3L281,88.3L281,78.3L287.6,78.3L287.6,80L282.8,80L282.9,82.4Z" style="fill:white;fill-rule:nonzero;"/>
    <path d="M151,78.4L152.3,78.4C152.5,78.4 152.7,78.5 152.8,78.7C152.944,79.221 153.145,79.724 153.4,80.2C153.8,81.3 154.4,82.3 154.8,83.4C155.2,84.5 156,86 156.4,87.3L156.8,88C156.85,88.128 156.884,88.263 156.9,88.4L154.8,88.4C154.7,87.7 154.2,87.1 154.1,86.4C154,85.7 153.9,86.1 153.6,86.1L149.6,86.1L148.7,88.4L146.6,88.4L146.8,88L147.8,85.6L148.6,83.8C148.8,83.3 149.1,82.7 149.3,82.2C149.5,81.7 149.8,81.1 150,80.5C150.284,79.777 150.618,79.076 151,78.4ZM153.3,84.5C152.8,83.1 152.3,81.8 151.7,80.4L150.1,84.5L153.3,84.5Z" style="fill:white;fill-rule:nonzero;"/>
    <path d="M162.4,88.4L162.4,78.4L164.2,78.4L164.2,86.7L168.4,86.7L168.4,88.3L162.4,88.4Z" style="fill:white;fill-rule:nonzero;"/>
    <rect x="254.4" y="78.4" width="1.9" height="10" style="fill:white;fill-rule:nonzero;"/>
    <path d="M282.4,15.1L278.8,15.1L274,11.2L279.6,11.2L280.9,13.1L282.4,15.1Z" style="fill:white;fill-rule:nonzero;"/>
    <path d="M167.1,78.4L168.8,78.4C168.81,78.466 168.81,78.534 168.8,78.6L167.8,81.8C167.753,81.981 167.586,82.106 167.4,82.1L166.1,82.1C166.4,80.8 167,79.7 167.1,78.4Z" style="fill:white;fill-rule:nonzero;"/>
    <path d="M151,75.6L152.4,77.5C152.003,77.567 151.602,77.6 151.2,77.6L149,75.7L151,75.6Z" style="fill:white;fill-rule:nonzero;"/>
    <path d="M173.4,75.6L174.8,77.5L173.5,77.5L171.3,75.6L173.4,75.6Z" style="fill:white;fill-rule:nonzero;"/>
    <path d="M240.8,75.6L242.8,75.6C242.036,76.159 241.332,76.795 240.7,77.5L239.5,77.5C239.811,76.791 240.252,76.147 240.8,75.6Z" style="fill:white;fill-rule:nonzero;"/>
</svg>
