<svg id="Layer_1" data-name="Layer 1" xmlns="http://www.w3.org/2000/svg" width="300" height="100" viewBox="0 0 300 100"><title>Artboard 1</title><path d="M216,88.8a9.1,9.1,0,0,0-1.1-.5,3.8,3.8,0,0,1-1.8-2.8,26.5,26.5,0,0,1-.1-3.5c0-1.2,0-2.3,0-3.5h2v3c0,1.2,0,2.4,0,3.6a2.1,2.1,0,0,0,.9,1.8,1.8,1.8,0,0,0,2,.2c.6,0,.9-.5,1.3-.8a.9.9,0,0,0,.2-.5,10,10,0,0,0,.2-1.5c0-1.8,0-3.5,0-5.3v-.6h1.8v.7c0,1.9,0,3.8,0,5.7a3.8,3.8,0,0,1-.9,2.6,2.9,2.9,0,0,1-2.1,1.2v.2Z" fill="#df6426"/><path d="M273.7,88.8a9.1,9.1,0,0,0-1.1-.5,3.8,3.8,0,0,1-1.8-2.8,26.5,26.5,0,0,1-.1-3.5c0-1.2,0-2.3,0-3.5h2v3c0,1.2,0,2.4,0,3.6a2.1,2.1,0,0,0,.9,1.8,1.8,1.8,0,0,0,2,.2c.6,0,.9-.5,1.3-.8a.9.9,0,0,0,.2-.5,10,10,0,0,0,.2-1.5c0-1.8,0-3.5,0-5.3v-.6H279v.7c0,1.9,0,3.8,0,5.7a3.8,3.8,0,0,1-.9,2.6,2.9,2.9,0,0,1-2.1,1.2v.2Z" fill="#df6426"/><path d="M289.9,67c-.4.3-.7.8-1.3,1.1a7.5,7.5,0,0,0-1,.9,14.3,14.3,0,0,1-2.7,1.7,13.9,13.9,0,0,1-3.4,1.2,11.4,11.4,0,0,1-2.2.3l-1.3.2a19.2,19.2,0,0,0-2.6-.2,24.7,24.7,0,0,1-3.2-.9l-1.9-.8a21,21,0,0,1-2.6-1.7,17.2,17.2,0,0,1-2.2-2.1,15.7,15.7,0,0,1-1.8-2.6,23,23,0,0,1-1.6-4,7.3,7.3,0,0,1-.2-1.1l-.2-1.1c0-.3.1-.7-.2-1s-.2-1.5.1-2.2a1.2,1.2,0,0,0,0-.4,14.3,14.3,0,0,1,1.1-4.4,22.6,22.6,0,0,1,1.4-2.8l.6-.8h4.9V41.9h.3a11.8,11.8,0,0,1,1.7-.9,9.8,9.8,0,0,1,1.8-.6l.9-.3a23.3,23.3,0,0,1,2.6-.3c.9,0,1.8-.1,2.7,0a15.7,15.7,0,0,1,4.6,1.2l1,.4a18.3,18.3,0,0,1,3,2l2,1.8-3.9,3.8-.4-.4a10.5,10.5,0,0,0-3.5-2.5,5.4,5.4,0,0,0-2.1-.6c-.3-.3-.8-.1-1.2-.2a3.7,3.7,0,0,0-1.3-.1h-1.3l-1.2.2-1.2.4a8.6,8.6,0,0,0-3.5,2.2l-.7.7a10.1,10.1,0,0,0-2.3,3.9,7.6,7.6,0,0,0-.5,3c0,.5,0,1,0,1.5a10.7,10.7,0,0,0,1.5,4.5,12.1,12.1,0,0,0,2,2.4,10.4,10.4,0,0,0,3.9,2.3,7.9,7.9,0,0,0,3,.5h1.5a10.2,10.2,0,0,0,3-.7,11.1,11.1,0,0,0,1.8-.9l.5-.4c.4-.2.6-.5.9-.7a1.5,1.5,0,0,0,.7-.7h.4l.3.3,3.3,3.3Z" fill="#df6426"/><path d="M268.2,45H257.6v.8q0,12.8,0,25.6c0,.9,0,.9-.9.9h-4.1c-.5,0-.6-.1-.6-.5s0-.3,0-.5V45h-11V39.7h27.1Z" fill="#df6426"/><path d="M158.9,21.2V35.7h-4.2c-.1-.7-.2-16-.1-19.1h6.4l1,2.7c.3,1,.7,2,1.1,3s.7,2.3,1.2,3.4a21.2,21.2,0,0,1,.7,2.1l.4,1.1a7.1,7.1,0,0,0,.5-1.2c.4-1.5,1-2.9,1.5-4.4s.5-1.6.8-2.3.5-1.5.8-2.3.5-1.5.8-2.2h6.4V35.7h-4.4V21.5H172l-.7,2.1-1.2,3.6c-.7,2.2-1.6,4.3-2.2,6.6-.2.6-.5,1.2-.6,1.8a.4.4,0,0,1-.5.3h-2.9C162.2,30.9,160.7,26,158.9,21.2Z" fill="#0c6b8d"/><path d="M78.1,16.6h4.2V35.7H76.8L76,34.4l-2-3.2-1.5-2.4-1.6-2.7-1.5-2.5-1-1.6h-.1c0,4.5,0,9,0,13.5H64.1V16.6h5.8l8.2,13.3Z" fill="#0c6b8d"/><path d="M259.7,35.8h-5.1a.7.7,0,0,1-.7-.5l-2.5-4.2-2-3.4c-.5-1-1.2-1.9-1.8-2.8L246.4,23l-.6-1V35.7h-4.2V16.6h5.8L255.5,30V16.6h4.2Z" fill="#0c6b8d"/><path d="M114.5,26.2c0-.4,0-.7,0-1a9.5,9.5,0,0,1,.9-3.7,8.8,8.8,0,0,1,2.5-3.2,9.1,9.1,0,0,1,4.1-1.9c.4-.3.9-.1,1.4-.2a4.9,4.9,0,0,1,1.3-.1h1.5a18.5,18.5,0,0,1,2.7.6,10.9,10.9,0,0,1,2.9,1.6,9.1,9.1,0,0,1,1.8,2.1,20.6,20.6,0,0,1,1.4,3.1s0,.1,0,.1a21.8,21.8,0,0,1,.1,4.2,6.9,6.9,0,0,1-.3,1.6c-.2.5-.3,1-.6,1.5l-.8,1.4a8.7,8.7,0,0,1-3.7,3,4.9,4.9,0,0,1-2.2.7,9.4,9.4,0,0,1-3.9.3,9.7,9.7,0,0,1-2.2-.4l-2.1-.9a8.4,8.4,0,0,1-2.9-2.5,10.4,10.4,0,0,1-1.5-2.8c-.1-.4-.2-.8-.3-1.2A10.1,10.1,0,0,1,114.5,26.2Zm4.4,0a9,9,0,0,0,.1,1.6,5.7,5.7,0,0,0,1.1,2.4,5.6,5.6,0,0,0,4.4,2.1h1.6a5.5,5.5,0,0,0,4.6-5,7.1,7.1,0,0,0-.3-3.3,5.5,5.5,0,0,0-5.3-4h-1.6l-1.2.4a5.4,5.4,0,0,0-3.1,3.6A5.2,5.2,0,0,0,118.9,26.2Z" fill="#0c6b8d"/><path d="M218.6,26.1c0-.3,0-.6,0-.9a9.4,9.4,0,0,1,.9-3.8,9.2,9.2,0,0,1,2.4-3.1,9.5,9.5,0,0,1,3.4-1.8l1.7-.4a16.8,16.8,0,0,1,2.6-.1,1.6,1.6,0,0,1,.9.1c.3.1.6-.1.9.2a6.2,6.2,0,0,1,2.9,1,8.6,8.6,0,0,1,3.2,2.9,13.8,13.8,0,0,1,1.4,3.2,5,5,0,0,1,.2,1.5c0,.8,0,1.6,0,2.4a9,9,0,0,1-.8,3.3,8.9,8.9,0,0,1-2.5,3.3,9.7,9.7,0,0,1-2.2,1.3,5,5,0,0,1-2.2.6c-.3.4-.8.1-1.3.3a3.2,3.2,0,0,1-1.3,0,5.2,5.2,0,0,1-1.4,0,20.6,20.6,0,0,1-2.2-.4l-1.9-.8a5.9,5.9,0,0,1-1.7-1.1,11.1,11.1,0,0,1-1.4-1.5,10.1,10.1,0,0,1-1.5-2.8,7.3,7.3,0,0,1-.3-.9,9.5,9.5,0,0,1-.2-1.2C218.6,27,218.6,26.6,218.6,26.1Zm4.4.1a8.5,8.5,0,0,0,.1,1.6,5.9,5.9,0,0,0,1.3,2.5l1.2,1,1,.5,1.4.3a8,8,0,0,0,2.7-.2,6.3,6.3,0,0,0,2.9-1.9,6,6,0,0,0,1.2-3.1,7.1,7.1,0,0,0-.1-2.5,6.7,6.7,0,0,0-1.4-2.8,5.8,5.8,0,0,0-1.8-1.3,5.7,5.7,0,0,0-1.8-.5,5.5,5.5,0,0,0-2.6.2,5.4,5.4,0,0,0-3.8,3.7c-.3.3-.1.7-.3,1.1A3.3,3.3,0,0,0,223,26.3Z" fill="#0c6b8d"/><path d="M26.6,16.6h8.7a7.4,7.4,0,0,1,3,.7A4.6,4.6,0,0,1,41,20.5a2.9,2.9,0,0,1,.2,1.1c0,.4,0,.9,0,1.3a4.8,4.8,0,0,1-1.7,3.8,3.8,3.8,0,0,1-2.4,1l2.3,3.8,1.1,1.9L42,35.7H36.9L34.9,32,33,28.3l-.2-.2h-2v7.6H26.6Zm4.2,3.6v4.4h2.8a5.2,5.2,0,0,0,1.6-.2c1-.3,1.7-.9,1.6-1.9a5.3,5.3,0,0,0,0-.6,1.9,1.9,0,0,0-.6-1.1l-.8-.5-1.1-.2Z" fill="#0c6b8d"/><path d="M153.1,35.7h-5.3L145.3,31,144,28.5a.5.5,0,0,0-.6-.4h-1.7v7.6h-4.2V16.6h7.6a11.9,11.9,0,0,1,3.9.7l.8.5a4.4,4.4,0,0,1,2.2,2.8,2.5,2.5,0,0,1,.2.5,5.2,5.2,0,0,1,0,.6c0,.4,0,.8,0,1.2a4.8,4.8,0,0,1-1.7,3.8,3.9,3.9,0,0,1-2.4,1.1l1.5,2.5,1.5,2.5,1.6,2.7ZM141.7,24.5h3.2l1.4-.2a2,2,0,0,0,1.3-2.8c-.1-.3-.1-.7-.6-.7a2.1,2.1,0,0,0-1.7-.6h-3.6Z" fill="#0c6b8d"/><path d="M54.5,16.6c.5,1.1,1,2.1,1.4,3.1l1.4,3.2c.5,1,.8,2.1,1.4,3.1a6.8,6.8,0,0,1,.6,1.4c.2.5.5.9.6,1.5a16.6,16.6,0,0,0,.9,1.9c.4,1.1,1,2.1,1.4,3.3a16.2,16.2,0,0,0,.8,1.7H58c-.3-.6-.5-1.4-.9-2s-.5-1.4-.8-2H48.9l-1.6,4H42.6l.7-1.5,1.3-2.9c.4-.9.8-1.7,1.1-2.6l.8-1.9c.2-.6.6-1.2.8-1.8l1.5-3.5,1.1-2.5.9-2.1a.6.6,0,0,1,.6-.4ZM50.2,28.1h4.7c-.6-1.8-1.4-3.4-2-5.2l-.4-.7Z" fill="#0c6b8d"/><path d="M182.5,35.7h-4.7l.7-1.5,1.2-2.9a18.9,18.9,0,0,0,.8-1.9,18.8,18.8,0,0,1,.8-1.8l1.1-2.6c.5-1.3,1.1-2.5,1.6-3.8s.6-1.3.9-1.9a18.1,18.1,0,0,0,.7-1.7c.1-.2.3-.4.3-.6s.3-.4.6-.4h3.1l1.4,3.2,1.7,3.8,1.6,3.7,1.6,3.7,1.7,3.8.3.9h-4.8c-.5-1.4-1.1-2.7-1.6-4h-7.4Zm5.2-13.5-2.3,5.9h4.7c-.6-1.8-1.4-3.4-2-5.2Z" fill="#0c6b8d"/><path d="M289.7,35.7h-4.8l-1.7-4h-7.4l-1.6,4h-4.7l.7-1.5,1.3-2.9c.4-.9.8-1.7,1.1-2.6l.8-1.9c.2-.6.6-1.2.8-1.8l1.5-3.5,1.1-2.5.9-2.1a.6.6,0,0,1,.6-.4h3.1l1.4,3.2,1.7,3.8,1.1,2.6.8,1.9c.2.6.6,1.2.8,1.8l1.2,2.7c.4.9.8,1.9,1.2,2.8Zm-12.6-7.7h4.6a.7.7,0,0,0,0-.3l-2.1-5.3-.2-.3Z" fill="#0c6b8d"/><path d="M84.1,33.8l3-3.3A5,5,0,0,0,89,31.9a4.1,4.1,0,0,0,4.2-.2,1.1,1.1,0,0,0,.6-1c0-.2,0-.4,0-.6a1.4,1.4,0,0,0-.6-1,7.4,7.4,0,0,0-2.8-1.3,17.5,17.5,0,0,1-2.7-1A8.8,8.8,0,0,1,86,25.7a3.5,3.5,0,0,1-.9-1.3,3.9,3.9,0,0,1-.4-1.7,3.2,3.2,0,0,0,0-.5,4.9,4.9,0,0,1,.8-3,3.9,3.9,0,0,1,1.2-1.4,8.5,8.5,0,0,1,1.3-.9l2.2-.7a13.1,13.1,0,0,1,2.8-.1,6.6,6.6,0,0,1,2,.4l2.1.9.7.6a6.9,6.9,0,0,1-1.4,1.6l-1.4,1.6A4.2,4.2,0,0,0,91.7,20a3,3,0,0,0-2,.8,1.5,1.5,0,0,0,.2,2.5,7.2,7.2,0,0,0,2.1.9l2.1.7a5.8,5.8,0,0,1,2.5,1.5,4.1,4.1,0,0,1,1.1,1.4,2.5,2.5,0,0,1,.3,1.1,2.3,2.3,0,0,0,.2.8,1.3,1.3,0,0,1,0,.6c-.2.6-.2,1.2-.4,1.8a6.3,6.3,0,0,1-.6,1.3,7.4,7.4,0,0,1-3.2,2.4,11.7,11.7,0,0,1-4.4.5l-1.1-.2-1-.3-1-.3-1.7-1.1Z" fill="#0c6b8d"/><path d="M104.8,20.4v3.9h7.9c.1,1.3,0,2.6,0,3.9h-8v7.5h-4.2V16.6h12.8c0,1.2,0,2.5,0,3.8Z" fill="#0c6b8d"/><path d="M15.5,20.3H10V16.6c.7-.1,11.8-.2,15.2-.1v3.7H19.7V35.7H15.5Z" fill="#0c6b8d"/><path d="M210.6,16.6v3.7h-5.5V35.7h-4.2V20.3h-5.5V16.6Z" fill="#0c6b8d"/><path d="M216.2,35.7H212V16.6h4.2Z" fill="#0c6b8d"/><path d="M231.7,78.4h2.7v10h-1.6c0-2.7,0-5.3,0-8.2a16.9,16.9,0,0,0-.8,2.1l-.8,2-.8,2-.7,2.1h-1.3c-.6-1.3-1-2.7-1.5-4.1l-1.5-4h-.1c0,2.7,0,5.3,0,8h-1.8v-10h2.4c.3,0,.4.1.5.4s.5,1,.6,1.5.7,1.8,1,2.8l.9,2.3C230,83,230.8,80.6,231.7,78.4Z" fill="#df6426"/><path d="M266.4,86.8h2.9v1.6h-6.1a5.7,5.7,0,0,1-3-.8,4.9,4.9,0,0,1-2.2-2.9,19.5,19.5,0,0,1-.1-2.8,5.7,5.7,0,0,1,1-1.9,6.9,6.9,0,0,1,1.6-1.3,5.5,5.5,0,0,1,2.5-.7,5.8,5.8,0,0,1,2.6.5,5.3,5.3,0,0,1,2.4,2.3,3.5,3.5,0,0,1,.5,1.9c0,.2,0,.5,0,.7a3.6,3.6,0,0,1-1.6,2.9Zm-3.2,0a2.5,2.5,0,0,0,2-.7,3,3,0,0,0,1.3-2.3,1.4,1.4,0,0,1,.1-.6c.1-.2-.1-.4-.1-.7a3.3,3.3,0,0,0-2.2-2.8,5,5,0,0,0-1.6-.2,2.6,2.6,0,0,0-1.7.6,3.6,3.6,0,0,0-1.4,3.2c0,.2.1.4.2.7a2.8,2.8,0,0,0,.6,1.4A3.1,3.1,0,0,0,263.2,86.8Z" fill="#df6426"/><path d="M203.5,88.4h-1.8v-10h2.4l4.9,7.4h.1c0-2.4,0-4.9,0-7.3h1.7c.1.6.1,8,0,10h-2.3l-5-7.7Z" fill="#df6426"/><path d="M184.6,84.1l2.6,4.3H185l-2.4-4.2h-1.3c0,1.4,0,2.7,0,4.1h-1.8V78.4H184a3.2,3.2,0,0,1,2.5,1.3,2.9,2.9,0,0,1,.4.9,3.3,3.3,0,0,1-1,3A4.3,4.3,0,0,1,184.6,84.1Zm-3.2-1.5h2.2a1.7,1.7,0,0,0,1.1-.5c.3-.3.2-.6.2-1s0-.3,0-.4a1.7,1.7,0,0,0-1.4-.8h-2.2Z" fill="#df6426"/><path d="M250.5,84.1l2.6,4.3h-2.2l-2.2-3.9a.5.5,0,0,0-.5-.3h-.9v4.2h-1.8V78.4h4.3a3.3,3.3,0,0,1,2.5,1.3,2,2,0,0,1,.4.9,3.1,3.1,0,0,1-.9,2.9A2.8,2.8,0,0,1,250.5,84.1Zm.4-3.3a1.6,1.6,0,0,0-1.2-.7h-2.3c0,.5,0,.9,0,1.3a10.7,10.7,0,0,0,0,1.3H249a1.9,1.9,0,0,0,1.8-.8Z" fill="#df6426"/><path d="M177.4,84.1h-4.7v2.7h5.2v1.6h-6.9c-.1-.6-.2-7.6-.1-10h6.6V80h-4.8v2.4h4.7Z" fill="#df6426"/><path d="M195.7,88.4h-6.9v-10h6.6V80h-4.8a7.2,7.2,0,0,0,0,1.2c0,.4,0,.8,0,1.2h4.7V84h-4.6v2.8h5.1Z" fill="#df6426"/><path d="M243.5,78.4V80h-4.8v2.4h4.6V84h-4.7v2.7h5.2v1.6h-7v-10Z" fill="#df6426"/><path d="M282.9,82.4h4.7V84h-4.7v2.7H288c0,.3,0,.5,0,.8s0,.5,0,.8h-7v-10h6.6V80h-4.8Z" fill="#df6426"/><path d="M151,78.4h1.3c.2,0,.4.1.5.3a7.3,7.3,0,0,0,.6,1.5c.4,1.1,1,2.1,1.4,3.2s1.2,2.6,1.6,3.9l.4.7a1.6,1.6,0,0,1,.1.4h-2.1c-.1-.7-.6-1.3-.7-2s-.2-.3-.5-.3h-4l-.9,2.3h-2.1l.2-.4,1-2.4.8-1.8c.2-.5.5-1.1.7-1.6s.5-1.1.7-1.7A16.6,16.6,0,0,1,151,78.4Zm2.3,6.1c-.5-1.4-1-2.7-1.6-4.1l-1.6,4.1Z" fill="#df6426"/><path d="M162.4,88.4v-10h1.8c0,2.8,0,5.5,0,8.3h4.2v1.6Z" fill="#df6426"/><path d="M256.3,88.4h-1.9V78.4h1.9Z" fill="#df6426"/><path d="M282.4,15.1h-3.6L274,11.2h5.6l1.3,1.9Z" fill="#0c6b8d"/><path d="M167.1,78.4h1.7a.7.7,0,0,1,0,.2l-1,3.2a.4.4,0,0,1-.4.3h-1.3C166.4,80.8,167,79.7,167.1,78.4Z" fill="#df6426"/><path d="M151,75.6l1.4,1.9a7.2,7.2,0,0,1-1.2.1l-2.2-1.9Z" fill="#df6426"/><path d="M173.4,75.6l1.4,1.9h-1.3l-2.2-1.9Z" fill="#df6426"/><path d="M240.8,75.6h2a13.6,13.6,0,0,0-2.1,1.9h-1.2A6.2,6.2,0,0,1,240.8,75.6Z" fill="#df6426"/></svg>