<svg id="Layer_1" data-name="Layer 1" xmlns="http://www.w3.org/2000/svg" width="300" height="100" viewBox="0 0 300 100"><title>Artboard 1</title><path d="M10,13.2H37.8v5.6H27c0,1.2,0,2.4,0,3.5s0,2.3,0,3.5v21H21.4c-.1-1,0-2,0-3s0-2.1,0-3.1V18.9H10Z" fill="#df6420"/><path d="M34.3,20h4.9V15.6c6.1-4.1,15.9-3,20.9,3.1l-3.9,3.8a11.3,11.3,0,0,0-12.9-2.9,11.3,11.3,0,0,0-3.3,18.4,11.3,11.3,0,0,0,16.3-.6l3.9,3.8A16.8,16.8,0,0,1,34.3,20Z" fill="#df6420"/><path d="M193.2,55.7l-5.1,14.9h-3.4l-4.8-14.7h-.2c0,1.2,0,2.4,0,3.6s0,2.5,0,3.7v7.4a37.5,37.5,0,0,1-4.3.1c-.2-.7-.2-18.7-.1-19.7a45.8,45.8,0,0,1,6.5-.1c.8,2.1,1.5,4.2,2.3,6.3s1.5,4.2,2.3,6.3c.9-2.1,1.6-4.2,2.4-6.3l2.2-6.3h6.5c.2.6.2,18.7,0,19.8a41.7,41.7,0,0,1-4.3,0c0-2.5,0-5,0-7.5s0-4.9,0-7.4Z" fill="#00698c"/><path d="M289.9,70.6h-5.7l-8.6-13.9h-.2V70.6h-4.2c-.2-.7-.2-18.9,0-19.8h5.9l8.2,13.5h.2V50.9a17.4,17.4,0,0,1,4.3-.1C290,51.4,290.1,68.9,289.9,70.6Z" fill="#00698c"/><path d="M89.1,50.8h4.2c.2.7.2,18.9,0,19.8H87.8L79.3,56.8h-.2V70.5a37.5,37.5,0,0,1-4.3.1c-.2-.7-.2-18.8,0-19.8h5.8l8.3,13.5h.2Z" fill="#00698c"/><path d="M131.2,60.7a11.5,11.5,0,0,1,.9-4.5,9.5,9.5,0,0,1,7.4-5.7,12.2,12.2,0,0,1,6.8.5,9.4,9.4,0,0,1,6.2,7.6,11.4,11.4,0,0,1-.3,5.4,9.2,9.2,0,0,1-5.6,6.2,12.1,12.1,0,0,1-9.2,0,9.3,9.3,0,0,1-6-7.4C131.3,62.1,131.3,61.4,131.2,60.7ZM142,54.3a5.7,5.7,0,0,0-5.9,4.8,9.1,9.1,0,0,0-.1,2.5,5.7,5.7,0,0,0,3.5,4.9,6.4,6.4,0,0,0,5,0,5.4,5.4,0,0,0,2.3-1.8,6.9,6.9,0,0,0,1.2-5.3,5.9,5.9,0,0,0-1.4-3.1A5.7,5.7,0,0,0,142,54.3Z" fill="#00698c"/><path d="M246,60.6a10.6,10.6,0,0,1,1.6-5.7,9.6,9.6,0,0,1,6.7-4.4,12.9,12.9,0,0,1,5.6.2,9.7,9.7,0,0,1,7.4,8.1,11.7,11.7,0,0,1-.7,6.2,9.1,9.1,0,0,1-5.7,5.4,11.9,11.9,0,0,1-10.6-1,9.1,9.1,0,0,1-4.1-6.2C246.2,62.3,246.1,61.4,246,60.6Zm10.8-6.3a5.8,5.8,0,0,0-6,4.6,7.5,7.5,0,0,0,.1,3.7,5.6,5.6,0,0,0,3.5,4,6.3,6.3,0,0,0,3.5.3,5.6,5.6,0,0,0,4.6-3.7,7.4,7.4,0,0,0,.4-3.7A5.8,5.8,0,0,0,256.8,54.3Z" fill="#00698c"/><path d="M45.3,62.3l4.9,8.1a22.2,22.2,0,0,1-5.2.1l-4.1-7.8H38.8v7.7a15,15,0,0,1-4.4.1c-.1-1.6,0-3.2-.1-4.9s0-3.3,0-4.9V50.8h8.5a8.9,8.9,0,0,1,3.2.6,5,5,0,0,1,3.3,4.1,7.1,7.1,0,0,1-.1,3A4.8,4.8,0,0,1,46.1,62l-.6.2Zm-6.6-3.5h3.6l1.5-.3A1.7,1.7,0,0,0,45,56.9a2.1,2.1,0,0,0-2.2-2.4h-4Z" fill="#00698c"/><path d="M156.4,50.8H165a8,8,0,0,1,3.6.9,4.9,4.9,0,0,1,2.7,3.6A7,7,0,0,1,171,59a4.7,4.7,0,0,1-3,2.9l-.9.3,4.9,8.2a19,19,0,0,1-5.2.1l-4.1-7.8h-2.1c0,.3-.1.6-.1.9q0,3,0,5.9v1a37.4,37.4,0,0,1-4.3.1C156.2,69.9,156.2,51.8,156.4,50.8Zm4.4,3.7a16.6,16.6,0,0,0,0,4.4h3.9l.7-.2a1.9,1.9,0,0,0,1.4-1.8,1.9,1.9,0,0,0-1.2-2.1l-1-.3Z" fill="#00698c"/><path d="M59.8,50.8h3.5c.5.6,8.4,19,8.6,19.8-1.6.1-3.1.1-4.8,0l-1.7-4.2H57.7L56,70.5a22,22,0,0,1-4.7,0C51.4,69.8,58.7,52.9,59.8,50.8Zm4.1,11.8c-.8-2-1.5-3.9-2.4-6l-2.3,6Z" fill="#00698c"/><path d="M208.9,50.8h3.7l8.6,19.8h-4.9l-1.7-4.1h-7.7l-1.6,4.1h-4.8c.9-2.3,1.9-4.4,2.8-6.6l2.9-6.6Zm1.8,6h-.2l-2.3,5.8H213Z" fill="#00698c"/><path d="M96.7,68.6l3.1-3.5a5.9,5.9,0,0,0,2.2,1.6,4.6,4.6,0,0,0,3.3-.1,2,2,0,0,0,1.2-1.1,1.6,1.6,0,0,0-.6-2,8.6,8.6,0,0,0-1.8-.9l-2.7-.9A7.3,7.3,0,0,1,98.6,60a4.4,4.4,0,0,1-1.2-3.7,6.2,6.2,0,0,1,5.1-5.8,10,10,0,0,1,7.1.8l1.4.9c-.9,1.3-2,2.2-2.9,3.3l-.8-.6a4.6,4.6,0,0,0-4.2-.3,1.7,1.7,0,0,0-1.1,1.6,1.6,1.6,0,0,0,1,1.6l2.2.9,3,1.1c2.4,1.1,3.2,3.2,2.8,5.6a5.9,5.9,0,0,1-4.5,5.2,10.1,10.1,0,0,1-7.9-.7Z" fill="#00698c"/><path d="M128.5,50.8v3.9a7.5,7.5,0,0,1-2.2.1h-6.7v3.9h8a13.3,13.3,0,0,1,.1,4h-8.2v7.7h-4.3c-.2-.7-.2-18.9,0-19.8Z" fill="#00698c"/><path d="M225.1,54.7h-5.5a5.1,5.1,0,0,1-.1-1.9c0-.6,0-1.2,0-1.8h15.7c0,1.2,0,2.4,0,3.8h-5.7c-.1.9,0,1.8,0,2.6s0,1.8,0,2.6V70.4a15.1,15.1,0,0,1-4.3.1c0-.3-.1-.6-.1-1q0-6.9,0-13.8Z" fill="#00698c"/><path d="M21.4,54.7H15.9a5.6,5.6,0,0,1-.1-1.9c0-.6,0-1.2,0-1.8H31.4v3.8H25.8c0,1.1,0,2.2,0,3.2s0,2.1,0,3.1v9.5a16.6,16.6,0,0,1-4.4,0c-.1-1.7,0-3.5,0-5.2s0-3.5,0-5.3Z" fill="#00698c"/><path d="M238.1,50.8h4.2c.2.7.2,18.7,0,19.8h-4.1C238,69.9,237.9,51.9,238.1,50.8Z" fill="#00698c"/><path d="M282.4,78.8v7.6a3.1,3.1,0,0,1-1.8.1,99,99,0,0,1,0-10.4H283l5,7.6a16.1,16.1,0,0,0,0-1.6c0-.5,0-1,0-1.4V76.1h1.8V86.5a8.8,8.8,0,0,1-2.3.1l-5-7.8Z" fill="#df6420"/><path d="M152.3,76.1c1.9.1,3.8-.2,5.6.2a4.7,4.7,0,0,1,3.8,4.7,5.1,5.1,0,0,1-5,5.5h-4.4A89.4,89.4,0,0,1,152.3,76.1Zm1.9,8.7a17.6,17.6,0,0,0,2.4,0c3.1-.4,3.6-3.2,2.7-5.3a2.4,2.4,0,0,0-1.1-1.1,7.2,7.2,0,0,0-3.9-.5Z" fill="#df6420"/><path d="M276.3,84.5V82.1h-2V80.4h3.8a22.2,22.2,0,0,1,.1,5.4,7.5,7.5,0,0,1-3.5,1,8.5,8.5,0,0,1-2.4-.2,4.9,4.9,0,0,1-3.7-3.5,6,6,0,0,1,.1-3.9c1-2.8,3.7-3.7,6-3.4a5.6,5.6,0,0,1,2.9,1l.4.3-1.3,1.4a4.2,4.2,0,0,0-3.8-.8,3.2,3.2,0,0,0-1.8,1.2,4.3,4.3,0,0,0,.2,5.1A4.1,4.1,0,0,0,276.3,84.5Z" fill="#df6420"/><path d="M236.4,76.1a36.9,36.9,0,0,1,5.4.2,4.8,4.8,0,0,1,3.9,4.7,5.2,5.2,0,0,1-4.9,5.5,35.6,35.6,0,0,1-4.4.1A96.3,96.3,0,0,1,236.4,76.1Zm1.9,1.7a43.8,43.8,0,0,0,0,7h2.4a3.1,3.1,0,0,0,3-3.1c.2-1.8-.6-3.3-2.5-3.6Z" fill="#df6420"/><path d="M213,76.1h4.7a2.6,2.6,0,0,1,2.5,1.7,2.3,2.3,0,0,1-1,2.9l-.5.3.3.2a2.5,2.5,0,0,1,1.6,2.8,2.6,2.6,0,0,1-2.1,2.3l-1.6.3H213C213,83,213,79.6,213,76.1Zm1.9,8.8H217l1-.2a1.3,1.3,0,0,0,.8-1.4,1,1,0,0,0-.9-1.1,7.3,7.3,0,0,0-3-.1Zm0-4.6a7.1,7.1,0,0,0,2.6-.1,1.3,1.3,0,0,0,.9-1.1,1.1,1.1,0,0,0-.7-1.1,5.8,5.8,0,0,0-2.7-.2Z" fill="#df6420"/><path d="M176.7,77.1l-1.4,1.3c-2.3-1.3-4.2-1.2-5.4.2a4.3,4.3,0,0,0-.1,5.1,4.1,4.1,0,0,0,5.2.8V82.1h-2V80.5a13.6,13.6,0,0,1,3.8-.1,24.9,24.9,0,0,1,.1,5.3,6.9,6.9,0,0,1-3.3,1,8.7,8.7,0,0,1-2.4-.1,5.2,5.2,0,0,1-4.1-6,6.7,6.7,0,0,1,.4-1.6c1-2.7,3.7-3.5,6-3.3a5.7,5.7,0,0,1,2.5.7Z" fill="#df6420"/><path d="M254.1,80.3V82a16.5,16.5,0,0,1-2.4.1h-2.3v2.7h5.2v1.6a48.3,48.3,0,0,1-7,0c-.2-.6-.2-9.3-.1-10.3a49,49,0,0,1,6.7-.1,2.2,2.2,0,0,1,0,1.6h-4.9a18.2,18.2,0,0,0,0,2.5Z" fill="#df6420"/><path d="M193.7,76.1h1.7l4.5,10.4a5.6,5.6,0,0,1-2.1.1l-1-2.3h-4.5l-1,2.4h-2.1C190.6,83,192.1,79.6,193.7,76.1Zm2.3,6.4c-.5-1.4-1-2.7-1.6-4.1l-1.6,4.1Z" fill="#df6420"/><path d="M255.8,85.4l1.3-1.3c2,1.5,3.5,1.3,4-.4a1.3,1.3,0,0,0-.9-1.2L259,82l-1.3-.5a2.9,2.9,0,0,1-.7-4.8c1.6-1.4,4.7-1.2,5.9.2l-1.2,1.3a8.8,8.8,0,0,0-1.6-.6,2.9,2.9,0,0,0-1.3.2,1.1,1.1,0,0,0-.7,1,1,1,0,0,0,.6,1l1.2.5,1.2.4A2.7,2.7,0,0,1,263,83a3.1,3.1,0,0,1-1.4,3.2,5,5,0,0,1-5.4-.4Z" fill="#df6420"/><path d="M228.7,76.1h2.1l-.3.6-3.2,4.8a2,2,0,0,0-.4,1.2c0,1,0,1.9,0,2.9s0,.6,0,.9h-1.9V82.1l-3.9-6h2.4l2.5,4C227.1,78.8,227.8,77.4,228.7,76.1Z" fill="#df6420"/><path d="M187.2,86.5h-1.9V77.8h-3.2c0-.6,0-1.1,0-1.6a59.5,59.5,0,0,1,8.2,0c0,.2,0,.5.1.7s0,.5,0,.8-2.1,0-3.2.1,0,1.9,0,2.8,0,1.9,0,2.9Z" fill="#df6420"/><path d="M201,86.4V76.2a4.4,4.4,0,0,1,1.8-.1c.1,2.9,0,5.7.1,8.6h4.4v1.6A36.7,36.7,0,0,1,201,86.4Z" fill="#df6420"/><path d="M180.8,86.5h-1.7a103.2,103.2,0,0,1-.1-10.4h1.7C180.9,76.7,181,85,180.8,86.5Z" fill="#df6420"/><path d="M165.3,86.4a2.8,2.8,0,0,1-1.9,0V76.1h1.8a24.5,24.5,0,0,1,.1,2.6c0,.9,0,1.8,0,2.6v5.1Z" fill="#df6420"/><path d="M264.9,76.1h1.7V86.5H265A94.6,94.6,0,0,1,264.9,76.1Z" fill="#df6420"/></svg>