<?xml version="1.0" encoding="UTF-8" standalone="no"?>
<!DOCTYPE svg PUBLIC "-//W3C//DTD SVG 1.1//EN" "http://www.w3.org/Graphics/SVG/1.1/DTD/svg11.dtd">
<svg width="100%" height="100%" viewBox="0 0 300 100" version="1.1" xmlns="http://www.w3.org/2000/svg" xmlns:xlink="http://www.w3.org/1999/xlink" xml:space="preserve" xmlns:serif="http://www.serif.com/" style="fill-rule:evenodd;clip-rule:evenodd;stroke-linejoin:round;stroke-miterlimit:2;">
    <path d="M10,13.2L37.8,13.2L37.8,18.8L27,18.8L27,46.8L21.4,46.8C21.3,45.8 21.4,44.8 21.4,43.8L21.4,18.9L10,18.9L10,13.2Z" style="fill:white;fill-rule:nonzero;"/>
    <path d="M34.3,20L39.2,20L39.2,15.6C45.3,11.5 55.1,12.6 60.1,18.7L56.2,22.5C52.982,18.865 47.764,17.692 43.3,19.6C39.233,21.413 36.601,25.468 36.601,29.921C36.601,32.96 37.827,35.875 40,38C42.107,40.041 44.929,41.184 47.862,41.184C51.084,41.184 54.157,39.806 56.3,37.4L60.2,41.2C57.04,44.433 52.706,46.258 48.185,46.258C38.968,46.258 31.385,38.674 31.385,29.458C31.385,26.085 32.401,22.788 34.3,20Z" style="fill:white;fill-rule:nonzero;"/>
    <path d="M193.2,55.7L188.1,70.6L184.7,70.6L179.9,55.9L179.7,55.9L179.7,70.6C178.27,70.716 176.834,70.749 175.4,70.7C175.2,70 175.2,52 175.3,51C177.462,50.813 179.634,50.779 181.8,50.9C182.6,53 183.3,55.1 184.1,57.2C184.9,59.3 185.6,61.4 186.4,63.5C187.3,61.4 188,59.3 188.8,57.2L191,50.9L197.5,50.9C197.7,51.5 197.7,69.6 197.5,70.7C196.068,70.774 194.632,70.774 193.2,70.7L193.2,55.7Z" style="fill:white;fill-rule:nonzero;"/>
    <path d="M289.9,70.6L284.2,70.6L275.6,56.7L275.4,56.7L275.4,70.6L271.2,70.6C271,69.9 271,51.7 271.2,50.8L277.1,50.8L285.3,64.3L285.5,64.3L285.5,50.9C286.924,50.689 288.368,50.655 289.8,50.8C290,51.4 290.1,68.9 289.9,70.6Z" style="fill:white;fill-rule:nonzero;"/>
    <path d="M89.1,50.8L93.3,50.8C93.5,51.5 93.5,69.7 93.3,70.6L87.8,70.6L79.3,56.8L79.1,56.8L79.1,70.5C77.67,70.616 76.234,70.649 74.8,70.6C74.6,69.9 74.6,51.8 74.8,50.8L80.6,50.8L88.9,64.3L89.1,64.3L89.1,50.8Z" style="fill:white;fill-rule:nonzero;"/>
    <path d="M131.2,60.7C131.195,59.155 131.501,57.624 132.1,56.2C133.396,53.138 136.209,50.972 139.5,50.5C141.768,50.017 144.127,50.191 146.3,51C149.624,52.167 152.024,55.109 152.5,58.6C152.835,60.398 152.732,62.25 152.2,64C151.434,66.842 149.349,69.15 146.6,70.2C143.654,71.411 140.346,71.411 137.4,70.2C134.197,69.024 131.888,66.177 131.4,62.8C131.3,62.1 131.3,61.4 131.2,60.7ZM142,54.3C139.112,54.163 136.553,56.244 136.1,59.1C135.952,59.925 135.918,60.766 136,61.6C136.138,63.763 137.499,65.668 139.5,66.5C141.097,67.178 142.903,67.178 144.5,66.5C145.417,66.123 146.213,65.5 146.8,64.7C147.908,63.173 148.342,61.256 148,59.4C147.848,58.252 147.361,57.173 146.6,56.3C145.459,54.959 143.759,54.22 142,54.3Z" style="fill:white;fill-rule:nonzero;"/>
    <path d="M246,60.6C245.981,58.587 246.536,56.609 247.6,54.9C249.084,52.528 251.533,50.919 254.3,50.5C256.159,50.156 258.071,50.224 259.9,50.7C263.795,51.61 266.745,54.839 267.3,58.8C267.632,60.892 267.39,63.035 266.6,65C265.615,67.568 263.517,69.555 260.9,70.4C257.409,71.753 253.476,71.382 250.3,69.4C248.114,68.012 246.622,65.755 246.2,63.2C246.2,62.3 246.1,61.4 246,60.6ZM256.8,54.3C253.951,54.141 251.386,56.107 250.8,58.9C250.524,60.122 250.558,61.394 250.9,62.6C251.319,64.436 252.636,65.941 254.4,66.6C255.515,67.03 256.729,67.134 257.9,66.9C260.008,66.641 261.795,65.204 262.5,63.2C262.946,62.021 263.084,60.747 262.9,59.5C262.586,56.433 259.878,54.124 256.8,54.3Z" style="fill:white;fill-rule:nonzero;"/>
    <path d="M45.3,62.3L50.2,70.4C48.477,70.637 46.731,70.671 45,70.5L40.9,62.7L38.8,62.7L38.8,70.4C37.346,70.649 35.864,70.683 34.4,70.5C34.3,68.9 34.4,67.3 34.3,65.6C34.2,63.9 34.3,62.3 34.3,60.7L34.3,50.8L42.8,50.8C43.894,50.802 44.979,51.005 46,51.4C47.786,52.029 49.067,53.621 49.3,55.5C49.481,56.496 49.447,57.519 49.2,58.5C48.843,60.123 47.668,61.45 46.1,62L45.5,62.2L45.3,62.3ZM38.7,58.8L42.3,58.8L43.8,58.5C44.503,58.284 44.989,57.635 45,56.9C45.015,56.799 45.022,56.698 45.022,56.596C45.022,55.444 44.074,54.496 42.922,54.496C42.881,54.496 42.841,54.498 42.8,54.5L38.8,54.5L38.7,58.8Z" style="fill:white;fill-rule:nonzero;"/>
    <path d="M156.4,50.8L165,50.8C166.254,50.814 167.487,51.122 168.6,51.7C170.029,52.391 171.037,53.735 171.3,55.3C171.535,56.538 171.431,57.816 171,59C170.508,60.381 169.397,61.455 168,61.9L167.1,62.2L172,70.4C170.279,70.672 168.53,70.705 166.8,70.5L162.7,62.7L160.6,62.7C160.6,63 160.5,63.3 160.5,63.6L160.5,70.5C159.07,70.616 157.634,70.649 156.2,70.6C156.2,69.9 156.2,51.8 156.4,50.8ZM160.8,54.5C160.605,55.96 160.605,57.44 160.8,58.9L164.7,58.9L165.4,58.7C166.212,58.479 166.785,57.742 166.8,56.9C166.954,56.006 166.448,55.121 165.6,54.8L164.6,54.5L160.8,54.5Z" style="fill:white;fill-rule:nonzero;"/>
    <path d="M59.8,50.8L63.3,50.8C63.8,51.4 71.7,69.8 71.9,70.6C70.3,70.7 68.8,70.7 67.1,70.6L65.4,66.4L57.7,66.4L56,70.5C54.438,70.668 52.862,70.668 51.3,70.5C51.4,69.8 58.7,52.9 59.8,50.8ZM63.9,62.6C63.1,60.6 62.4,58.7 61.5,56.6L59.2,62.6L63.9,62.6Z" style="fill:white;fill-rule:nonzero;"/>
    <path d="M208.9,50.8L212.6,50.8L221.2,70.6L216.3,70.6L214.6,66.5L206.9,66.5L205.3,70.6L200.5,70.6C201.4,68.3 202.4,66.2 203.3,64L206.2,57.4L208.9,50.8ZM210.7,56.8L210.5,56.8L208.2,62.6L213,62.6L210.7,56.8Z" style="fill:white;fill-rule:nonzero;"/>
    <path d="M96.7,68.6L99.8,65.1C100.399,65.797 101.152,66.345 102,66.7C103.074,67.076 104.251,67.04 105.3,66.6C105.838,66.42 106.274,66.02 106.5,65.5C106.821,64.78 106.564,63.924 105.9,63.5C105.337,63.131 104.733,62.829 104.1,62.6L101.4,61.7C100.35,61.353 99.392,60.771 98.6,60C97.648,59.021 97.204,57.652 97.4,56.3C97.541,53.425 99.666,51.007 102.5,50.5C104.884,49.883 107.413,50.168 109.6,51.3L111,52.2C110.1,53.5 109,54.4 108.1,55.5L107.3,54.9C106.032,54.128 104.465,54.016 103.1,54.6C102.436,54.85 101.996,55.491 102,56.2C101.95,56.892 102.356,57.542 103,57.8L105.2,58.7L108.2,59.8C110.6,60.9 111.4,63 111,65.4C110.77,67.912 108.953,70.012 106.5,70.6C103.882,71.453 101.027,71.2 98.6,69.9L96.7,68.6Z" style="fill:white;fill-rule:nonzero;"/>
    <path d="M128.5,50.8L128.5,54.7C127.776,54.841 127.034,54.875 126.3,54.8L119.6,54.8L119.6,58.7L127.6,58.7C127.835,60.021 127.869,61.369 127.7,62.7L119.5,62.7L119.5,70.4L115.2,70.4C115,69.7 115,51.5 115.2,50.6L128.5,50.8Z" style="fill:white;fill-rule:nonzero;"/>
    <path d="M225.1,54.7L219.6,54.7C219.448,54.079 219.414,53.434 219.5,52.8L219.5,51L235.2,51L235.2,54.8L229.5,54.8C229.4,55.7 229.5,56.6 229.5,57.4L229.5,70.4C228.079,70.638 226.631,70.672 225.2,70.5C225.2,70.2 225.1,69.9 225.1,69.5L225.1,54.7Z" style="fill:white;fill-rule:nonzero;"/>
    <path d="M21.4,54.7L15.9,54.7C15.759,54.077 15.725,53.434 15.8,52.8L15.8,51L31.4,51L31.4,54.8L25.8,54.8L25.8,70.6C24.34,70.795 22.86,70.795 21.4,70.6C21.3,68.9 21.4,67.1 21.4,65.4L21.4,54.7Z" style="fill:white;fill-rule:nonzero;"/>
    <path d="M238.1,50.8L242.3,50.8C242.5,51.5 242.5,69.5 242.3,70.6L238.2,70.6C238,69.9 237.9,51.9 238.1,50.8Z" style="fill:white;fill-rule:nonzero;"/>
    <path d="M282.4,78.8L282.4,86.4C281.823,86.611 281.197,86.646 280.6,86.5C280.418,83.036 280.418,79.564 280.6,76.1L283,76.1L288,83.7C288.027,83.167 288.027,82.633 288,82.1L288,76.1L289.8,76.1L289.8,86.5C289.041,86.634 288.268,86.668 287.5,86.6L282.5,78.8L282.4,78.8Z" style="fill:white;fill-rule:nonzero;"/>
    <path d="M152.3,76.1C154.2,76.2 156.1,75.9 157.9,76.3C160.13,76.735 161.742,78.728 161.7,81C161.711,81.133 161.716,81.267 161.716,81.401C161.716,84.167 159.466,86.454 156.7,86.5L152.3,86.5C152.098,83.036 152.098,79.564 152.3,76.1ZM154.2,84.8C154.999,84.855 155.801,84.855 156.6,84.8C159.7,84.4 160.2,81.6 159.3,79.5C159.066,79.021 158.679,78.634 158.2,78.4C156.972,77.875 155.621,77.702 154.3,77.9L154.2,84.8Z" style="fill:white;fill-rule:nonzero;"/>
    <path d="M276.3,84.5L276.3,82.1L274.3,82.1L274.3,80.4L278.1,80.4C278.353,82.189 278.387,84.003 278.2,85.8C277.133,86.416 275.931,86.759 274.7,86.8C273.895,86.848 273.086,86.78 272.3,86.6C270.512,86.217 269.082,84.864 268.6,83.1C268.198,81.825 268.233,80.452 268.7,79.2C269.7,76.4 272.4,75.5 274.7,75.8C275.741,75.857 276.745,76.203 277.6,76.8L278,77.1L276.7,78.5C275.641,77.629 274.22,77.33 272.9,77.7C272.179,77.879 271.542,78.303 271.1,78.9C270.044,80.456 270.126,82.532 271.3,84C272.653,85.284 274.72,85.491 276.3,84.5Z" style="fill:white;fill-rule:nonzero;"/>
    <path d="M236.4,76.1C238.202,76.035 240.007,76.101 241.8,76.3C244.049,76.729 245.693,78.711 245.7,81C245.706,81.103 245.709,81.205 245.709,81.308C245.709,84.051 243.539,86.347 240.8,86.5C239.337,86.624 237.867,86.657 236.4,86.6C236.209,83.103 236.209,79.597 236.4,76.1ZM238.3,77.8C238.113,80.13 238.113,82.47 238.3,84.8L240.7,84.8C242.363,84.746 243.701,83.363 243.7,81.7C243.9,79.9 243.1,78.4 241.2,78.1L238.3,77.8Z" style="fill:white;fill-rule:nonzero;"/>
    <path d="M213,76.1L217.7,76.1C218.808,76.074 219.817,76.76 220.2,77.8C220.652,78.875 220.218,80.132 219.2,80.7L218.7,81L219,81.2C220.14,81.617 220.819,82.806 220.6,84C220.488,85.144 219.629,86.084 218.5,86.3L216.9,86.6L213,86.6L213,76.1ZM214.9,84.9L217,84.9L218,84.7C218.557,84.476 218.89,83.894 218.8,83.3C218.804,83.265 218.805,83.23 218.805,83.196C218.805,82.683 218.411,82.248 217.9,82.2C216.918,81.959 215.896,81.925 214.9,82.1L214.9,84.9ZM214.9,80.3C215.765,80.427 216.647,80.393 217.5,80.2C217.991,80.045 218.345,79.612 218.4,79.1C218.432,78.621 218.148,78.173 217.7,78C216.828,77.721 215.903,77.653 215,77.8L214.9,80.3Z" style="fill:white;fill-rule:nonzero;"/>
    <path d="M176.7,77.1L175.3,78.4C173,77.1 171.1,77.2 169.9,78.6C168.756,80.09 168.716,82.166 169.8,83.7C171.106,85.184 173.308,85.523 175,84.5L175,82.1L173,82.1L173,80.5C174.256,80.289 175.535,80.255 176.8,80.4C177.022,82.158 177.055,83.935 176.9,85.7C175.902,86.307 174.767,86.651 173.6,86.7C172.799,86.778 171.992,86.744 171.2,86.6C168.448,86.049 166.614,83.364 167.1,80.6C167.167,80.052 167.301,79.515 167.5,79C168.5,76.3 171.2,75.5 173.5,75.7C174.376,75.738 175.232,75.977 176,76.4L176.7,77.1Z" style="fill:white;fill-rule:nonzero;"/>
    <path d="M254.1,80.3L254.1,82C253.303,82.092 252.501,82.125 251.7,82.1L249.4,82.1L249.4,84.8L254.6,84.8L254.6,86.4C252.27,86.569 249.93,86.569 247.6,86.4C247.4,85.8 247.4,77.1 247.5,76.1C249.728,75.914 251.967,75.88 254.2,76C254.401,76.514 254.401,77.086 254.2,77.6L249.3,77.6C249.243,78.432 249.243,79.268 249.3,80.1L254.1,80.3Z" style="fill:white;fill-rule:nonzero;"/>
    <path d="M193.7,76.1L195.4,76.1L199.9,86.5C199.213,86.666 198.5,86.7 197.8,86.6L196.8,84.3L192.3,84.3L191.3,86.7L189.2,86.7C190.6,83 192.1,79.6 193.7,76.1ZM196,82.5C195.5,81.1 195,79.8 194.4,78.4L192.8,82.5L196,82.5Z" style="fill:white;fill-rule:nonzero;"/>
    <path d="M255.8,85.4L257.1,84.1C259.1,85.6 260.6,85.4 261.1,83.7C261.084,83.151 260.723,82.669 260.2,82.5L259,82L257.7,81.5C256.679,81.025 256.023,79.997 256.023,78.871C256.023,78.041 256.379,77.25 257,76.7C258.6,75.3 261.7,75.5 262.9,76.9L261.7,78.2C261.187,77.949 260.652,77.748 260.1,77.6C259.657,77.566 259.212,77.635 258.8,77.8C258.387,77.961 258.11,78.357 258.1,78.8C258.065,79.226 258.307,79.63 258.7,79.8L259.9,80.3L261.1,80.7C262.136,81.015 262.886,81.923 263,83C263.235,84.25 262.678,85.524 261.6,86.2C259.88,87.136 257.763,86.979 256.2,85.8L255.8,85.4Z" style="fill:white;fill-rule:nonzero;"/>
    <path d="M228.7,76.1L230.8,76.1L230.5,76.7L227.3,81.5C227.04,81.846 226.9,82.267 226.9,82.7L226.9,85.6C226.9,86.6 226.9,86.2 226.9,86.5L225,86.5L225,82.1L221.1,76.1L223.5,76.1L226,80.1C227.1,78.8 227.8,77.4 228.7,76.1Z" style="fill:white;fill-rule:nonzero;"/>
    <path d="M187.2,86.5L185.3,86.5L185.3,77.8L182.1,77.8L182.1,76.2C184.83,76.011 187.57,76.011 190.3,76.2C190.3,76.4 190.3,76.7 190.4,76.9C190.5,77.1 190.4,77.4 190.4,77.7C190.4,78 188.3,77.7 187.2,77.8C186.1,77.9 187.2,79.7 187.2,80.6L187.2,86.5Z" style="fill:white;fill-rule:nonzero;"/>
    <path d="M201,86.4L201,76.2C201.587,76.043 202.2,76.009 202.8,76.1C202.9,79 202.8,81.8 202.9,84.7L207.3,84.7L207.3,86.3C205.207,86.514 203.099,86.547 201,86.4Z" style="fill:white;fill-rule:nonzero;"/>
    <path d="M180.8,86.5L179.1,86.5C178.892,83.037 178.859,79.566 179,76.1L180.7,76.1C180.9,76.7 181,85 180.8,86.5Z" style="fill:white;fill-rule:nonzero;"/>
    <path d="M165.3,86.4C164.686,86.621 164.014,86.621 163.4,86.4L163.4,76.1L165.2,76.1C165.279,76.964 165.313,77.832 165.3,78.7L165.3,86.4Z" style="fill:white;fill-rule:nonzero;"/>
    <path d="M264.9,76.1L266.6,76.1L266.6,86.5L265,86.5C264.776,83.038 264.743,79.566 264.9,76.1Z" style="fill:white;fill-rule:nonzero;"/>
</svg>
